<?xml version="1.0" encoding="UTF-8" standalone="no"?>
<!-- Created with Inkscape (http://www.inkscape.org/) -->

<svg
   xmlns:dc="http://purl.org/dc/elements/1.1/"
   xmlns:cc="http://creativecommons.org/ns#"
   xmlns:rdf="http://www.w3.org/1999/02/22-rdf-syntax-ns#"
   xmlns:svg="http://www.w3.org/2000/svg"
   xmlns="http://www.w3.org/2000/svg"
   version="1.2"
   width="256"
   height="200"
   id="svg2">
  <defs
     id="defs4" />
  <g
     transform="translate(-17.408101,-731.94577)"
     id="layer1">
    <rect
       width="251.01062"
       height="57.385658"
       x="76.128143"
       y="-93.76738"
       id="rect3659"
       style="fill:#ffffff;fill-opacity:1;stroke:none;display:none" />
    <g
       transform="translate(-0.03125,53.508923)"
       id="g2992">
      <path
         d="m 73.5,106.875 c -42.676525,7.73741 -72.15625,24.25349 -72.15625,43.40625 0,26.56415 56.720777,48.125 126.6875,48.125 69.96672,0 126.6875,-21.56085 126.6875,-48.125 0,-18.82724 -28.52546,-35.10178 -70.03125,-43 l 0,3.71875 c 26.53266,6.87927 43.96875,18.44353 43.96875,31.5625 0,21.10024 -45.04956,38.21875 -100.625,38.21875 -55.575442,0 -100.65625,-17.11851 -100.65625,-38.21875 0,-13.46924 18.39019,-25.29053 46.125,-32.09375 l 0,-3.59375 z"
         transform="translate(17.408101,675.94577)"
         id="path2832"
         style="fill:#0067ab;fill-opacity:1;stroke:none" />
      <g
         id="text3951-5-1"
         style="font-size:166.37013245px;font-style:normal;font-variant:normal;font-weight:bold;font-stretch:normal;text-align:start;line-height:125%;writing-mode:lr-tb;text-anchor:start;fill:#000000;fill-opacity:1;stroke:#000000;stroke-width:4.36847305;stroke-linecap:butt;stroke-linejoin:round;stroke-miterlimit:4;stroke-opacity:1;stroke-dashoffset:0;display:inline;font-family:Times New Roman;-inkscape-font-specification:Times New Roman Bold">
        <path
           d="m 117.34127,684.78876 0,3.65559 c -5.41575,1.02909 -9.40982,2.93812 -11.98223,5.7271 -2.57249,2.78918 -3.85872,5.9709 -3.85868,9.54516 -4e-5,3.62861 0.64984,8.13717 1.94965,13.5257 1.29972,5.38869 1.94961,10.0868 1.94965,14.09434 -4e-5,3.68274 -1.09672,7.4331 -3.29003,11.25111 -2.1934,3.81811 -5.348039,7.08106 -9.463928,9.78886 -2.870349,1.89554 -7.446607,3.68272 -13.728786,5.36154 6.715435,2.11216 11.589555,4.1972 14.622375,6.25513 4.007575,2.76203 7.013279,6.01145 9.017129,9.74825 2.00376,3.73685 3.00567,7.28412 3.00571,10.64184 -4e-5,3.24942 -0.66347,7.58198 -1.99026,12.99766 -1.32689,5.41569 -1.99032,10.12734 -1.99027,14.13497 -5e-5,3.84512 1.23202,7.16223 3.69621,9.95134 2.46409,2.78905 6.48524,4.72516 12.06346,5.80833 l 0,3.81806 -2.84324,0 c -5.52406,0.0541 -10.76374,-1.21856 -15.719054,-3.81806 -4.955396,-2.59956 -8.692221,-5.94375 -11.210488,-10.03258 -2.518324,-4.08886 -3.777472,-8.05585 -3.777447,-11.90098 -2.5e-5,-3.73684 0.839407,-8.85466 2.518298,-15.3535 1.245581,-4.81995 1.868385,-9.12543 1.868415,-12.91643 -3e-5,-4.27837 -1.353952,-7.92042 -4.061771,-10.92616 -2.70787,-3.00568 -6.661323,-4.94179 -11.860371,-5.80833 l 0,-4.95537 c 5.199048,-0.86646 9.152501,-2.87027 11.860371,-6.01142 2.707819,-3.14105 4.061741,-6.95911 4.061771,-11.45419 -3e-5,-3.68261 -0.595755,-7.82561 -1.787179,-12.42902 -1.678892,-6.4446 -2.518323,-11.34579 -2.518298,-14.70361 -2.5e-5,-3.52011 1.056034,-7.09446 3.168181,-10.72307 2.11209,-3.62842 4.765778,-6.57997 7.961071,-8.85466 3.19522,-2.27449 6.688341,-3.92627 10.479371,-4.95536 2.92442,-0.81225 6.87788,-1.29966 11.86037,-1.46224 z"
           id="path2992" />
        <path
           d="m 173.47493,831.09374 0,-3.73683 c 5.36153,-1.02901 9.34206,-2.93804 11.94161,-5.72709 2.59951,-2.78911 3.89928,-5.97082 3.8993,-9.54516 -2e-5,-3.57437 -0.6499,-8.05586 -1.94965,-13.44447 -1.29979,-5.38861 -1.94967,-10.08672 -1.94965,-14.09434 -2e-5,-3.73681 1.08312,-7.51426 3.24942,-11.33234 2.16625,-3.81804 5.33443,-7.08099 9.50454,-9.78887 2.87028,-1.8413 7.44654,-3.62848 13.72879,-5.36154 -6.7155,-2.11208 -11.58962,-4.19712 -14.62238,-6.25512 -4.0618,-2.76196 -7.09458,-6.01137 -9.09836,-9.74825 -2.00383,-3.73677 -3.00573,-7.28405 -3.00572,-10.64184 -1e-5,-3.24935 0.66341,-7.5819 1.99027,-12.99767 1.32683,-5.41561 1.99025,-10.10018 1.99027,-14.05373 -2e-5,-3.8992 -1.21855,-7.22985 -3.65559,-9.99195 -2.43708,-2.7619 -6.44469,-4.71155 -12.02285,-5.84895 l 0,-3.73683 2.84324,-0.0812 c 5.46984,-0.054 10.69598,1.21865 15.67844,3.81807 4.98241,2.59964 8.73277,5.94382 11.2511,10.03257 2.51826,4.08895 3.77741,8.08302 3.77745,11.98222 -4e-5,3.68276 -0.83947,8.77351 -2.5183,15.27226 -1.24564,4.82004 -1.86845,9.12551 -1.86841,12.91643 -4e-5,4.27846 1.34035,7.93405 4.02115,10.96679 2.68073,3.03283 6.64772,4.9554 11.90099,5.76771 l 0,4.95536 c -5.25327,0.86655 -9.22026,2.87035 -11.90099,6.01142 -2.6808,3.14113 -4.02119,6.95919 -4.02115,11.45419 -4e-5,3.68269 0.59569,7.8257 1.78718,12.42902 1.62467,6.44468 2.43702,11.34588 2.43706,14.70361 -4e-5,3.57435 -1.04256,7.16225 -3.12756,10.7637 -2.08508,3.60141 -4.72523,6.53942 -7.92046,8.81404 -3.19528,2.27456 -6.6884,3.92635 -10.47936,4.95536 -2.9245,0.81232 -6.87795,1.32681 -11.86038,1.54347 z"
           id="path2994" />
      </g>
    </g>
  </g>
</svg>
