<?xml version="1.0" encoding="UTF-8" standalone="no"?>
<svg
   xmlns:dc="http://purl.org/dc/elements/1.1/"
   xmlns:cc="http://creativecommons.org/ns#"
   xmlns:rdf="http://www.w3.org/1999/02/22-rdf-syntax-ns#"
   xmlns:svg="http://www.w3.org/2000/svg"
   xmlns="http://www.w3.org/2000/svg"
   xmlns:xlink="http://www.w3.org/1999/xlink"
   version="1.1"
   width="90"
   height="75"
   id="Many Fish">
  <path
     d="M 45.2625,1.204 81.7055,37.647 45.2625,74.09 8.8195,37.647 z"
     style="fill:#406585;stroke:#00315d;stroke-width:0.86px" />
  <g
     style="fill:#77cfdf;stroke:#00b9f2;stroke-width:0.42px"
     id="Fish">
    <path
       d="m 11.4655,30.098 c 0,0 5.876,-4.258 9.091,-4.074 3.216,0.184 6.347,1.804 6.347,1.804 l 0.835,1.754 c 0,0 2.263,1.032 2.766,1.705 0.492,0.658 0.48,0.608 1.785,4.285 l -14.086,-0.04 z"
       style="stroke:#039bd9" />
    <path
       d="m 26.9915,35.89 c 1.147,-0.523 4.805,-0.89 6.402,-1.7 1.217,-0.616 6.568,-2.745 8.152,-1.684 0.863,0.578 -2.097,5.608 -3.207,6.861 -1.1,1.24 -0.224,5.049 -0.411,5.577 -0.387,1.091 -2.949,1.503 -3.567,1.283 -0.581,-0.207 -4.125,-1.286 -5.696,-1.925 -1.279,-0.522 -2.129,-1.313 -5.779,-0.849 z" />
    <path
       d="m 16.0475,44.432 c 0,0 3.126,1.289 5.171,1.262 l 2.094,-0.362 c 0,0 1.71,-1.097 -0.036,-2.239"
       style="stroke:#039bd9" />
    <path
       d="m 20.0215,43.83 c -2.292,0.882 -9.414,1.596 -11.939,-0.392 L 6.7495,34.33 c 0,0 -0.915,-2.182 3.688,-3.705 2.942,-0.975 2.651,-1.128 6.557,-0.752 2.437,0.235 6.378,2.303 7.268,3.231 1.529,1.593 5.324,2.769 6.766,2.923 1.444,0.153 2.369,0.006 2.369,0.006 0,0 -0.479,3.205 -1.859,4.987 -1.382,1.781 -2.43,1.959 -2.43,1.959 0,0 -2.251,0.052 -4.333,0.084 -3.094,0.044 -4.754,0.767 -4.754,0.767 z"
       id="path12"
       style="fill:#fbb425;stroke:#faab18" />
    <path
       d="m 4.2365,37.117 c 0,0 2.294,-6.304 7.825,-6.701 4.931,-0.353 7.845,3.611 7.838,6.477 -0.008,3.549 -2.637,6.915 -6.11,7.291 -4.208,0.453 -6.229,-0.761 -6.357,-1.203 z"
       style="fill:#ffd569;stroke:#faab18;stroke-width:0.46px" />
    <path
       d="m 8.4435,43.157 c -0.423,0.333 -0.067,0.192 -1.789,0.43 -1.215,0.169 -2.456,-0.036 -3.14,-0.924 -0.602,-0.782 0.211,-0.908 1.35,-0.981 0.51,-0.034 1.045,0.007 0.911,-0.237 -0.533,-0.978 -1.52,-2.104 -2.691,-2.24 -2.494,-0.289 -1.847,-2.041 -1.847,-2.041 0.146,-0.623 1.886,-0.748 3.413,-0.449 l 3.977,4.617"
       style="stroke-width:0.55px" />
    <path
       d="m 14.5215,33.014 c 0.025,1.909 -1.479,3.478 -3.363,3.505 -1.883,0.024 -3.428,-1.504 -3.451,-3.415 -0.026,-1.911 1.479,-3.479 3.361,-3.505 1.884,-0.025 3.429,1.504 3.453,3.415 z"
       style="fill:#ffffff;stroke:#dc9837;stroke-width:0.43px" />
    <path
       d="m 11.9065,33.026 c 0.005,0.383 -0.298,0.697 -0.674,0.703 -0.376,0.003 -0.686,-0.301 -0.691,-0.684 -0.006,-0.382 0.297,-0.697 0.674,-0.701 0.376,-0.005 0.684,0.301 0.691,0.682 z"
       style="fill:#232020" />
    <path
       d="m 19.4095,37.588 c 0,0 4.822,-0.248 5.121,-0.496 0.298,-0.249 0.666,0.175 0.729,0.48 0.064,0.304 -3.504,3.589 -4.349,3.539 -0.844,-0.05 -4.273,0.195 -4.159,-0.295" />
  </g>
  <use
     transform="translate(25.111,-20.683)"
     xlink:href="#Fish" />
  <use
     transform="translate(47.729,0.985)"
     xlink:href="#Fish" />
  <use
     transform="translate(23.426,21.878)"
     xlink:href="#Fish" />
</svg>
