<svg xmlns="http://www.w3.org/2000/svg" width="1351" height="873" viewBox="0 0 1351 873">
  <g fill="#fff">
    <path d="M0 0h1351v873H0V0m82.4 42.7c-5.8 1.4-11.7 2.8-17.6 4-3.3.6-5.5 3.3-8.2 5-3.5 2.7-7.8 4.7-10 8.8-3 4.7-7.7 8.6-8.5 14.4-1.4 8.2-5 16.4-4.3 25v678c1.2 8 3.5 16 5.4 24 3.2 4.8 6.6 9.4 10 14l13.5 9.5c8 2 16.2 4.3 24.5 5.5h1172c9 .6 17.7-3 26.5-4.7 3.8-.4 6.5-3.4 9.5-5.4 3-2.5 6.6-4 8.6-7.4 2.7-4 5.7-7.6 8.2-11.6 2-8 4.2-16 5.4-24V95c-1-7.2-3.2-14-4.6-21-.5-3.8-3.3-6.4-5.3-9.4-2.6-3.3-4.5-7.4-8.3-9.6-3.8-2.5-7-5.7-11-7.7-8-1.7-16-4.2-24-5.3H93c-3.5 0-7-.3-10.6.7z"/>
    <path d="M84.8 93h1181.4v687H84.8V93m28.4 25.8l51 376h25.5c38.6-77.3 77-154.5 115.8-231.7l28 167c.3 3 1.5 6 0 9-7 17.3-14.3 34.6-21.6 52-6 13.5-11.4 27.3-17.3 40.8-2.7 6.4-5 12.8-8 19-2.6 6.4-5 13-8 19.2-5.8 14.6-12.3 29-18 43.6-2 3.6-3 7.6-4.8 11.3-5.3 12.3-10.6 24.7-15.7 37-12.2 28.8-24 57.6-36 86.3 21.6 1 43.3 2.4 65 3.3 1.6-3.8 3-7.7 5-11.5 2.3-5.6 4.4-11.3 7-17l1.6-4c2-4.8 3.7-9.5 5.7-14.2l36-86.6c31 8.4 63.7 9.4 95.2 3.7 2.4-.5 5-.8 7.4-1.8 10.5-2 20.6-5.5 30.5-9.5 18.8-8 36.7-18.8 51.5-33.2 12.4-11.8 22.5-26 29.8-41.4 4.4-9.3 8-19 10.4-29 4.2-15.6 6.2-32 4.2-48-2.2-16.5-10-32.5-22.2-43.8-12.7-11.7-28.8-19.3-45.5-23.4-2.5-1.5-5.5-1.6-8.2-2.4-17.8-4-36-5.7-54.4-6l128-264.6h-66c-36.4 77.3-73 154.7-109.2 232l-31-232H318C280 196 242 273.7 204 351c-8.6-77.4-17.2-154.8-26-232.3h-64.7m491.2 7.3c-18.2 5.2-36 12.3-51.2 23.8l17.2 53.4c7.6-6.4 15.2-13 24.2-17.5 16.7-8.6 35.8-11.5 54.5-11 10.5.7 22.3 3.4 29 12.3 7.7 10 7.7 23.5 6.5 35.4-8.6-2.5-17.5-4.2-26.5-4.2-22 0-44 3.4-64.4 11.3-17 6.6-33 16.2-46.7 28.2-14 12-25.3 27.3-31.4 44.8-5.2 14.8-7.4 31-4.7 46.5 3.3 19 15.5 36.2 32 46.2 13.6 8.4 30.2 10.5 46 9.3 28.3-1 56.8-10.2 78.6-28.7 3.5 9.4 10.5 17.6 19.8 21.8 14.4 6.5 30.5 6.7 46 6.7l6-33c-5.2-3-10.2-6.7-12.3-12.4-4.3-11.7-2-24.3.3-36l15.8-90c3.2-19.5 4.5-39.8-.4-59-3.6-14.7-12-28.4-24.6-37-17.7-12.4-39.8-16-61-17-17.8-1.2-35.7 1.2-52.8 6m139.2-4.7c22.6 93.5 45.5 187 68 280.4h21.3L1003 121.4h-64.6l-96 170.4-33.8-170.3c-21.8-.3-43.5-.2-65.2 0m229.8 632.4h60.3l15.7-89.4c.3-1.2.2-2.8 1.4-3.6l38.5-33.5 57 126.5h65.3c-25.3-56-50.8-111.6-76-167.4 36.6-36 73-72 109.8-107.6h-73.3c-10.5 10.5-21.2 20.7-31.7 31.3-25.5 26-51.5 51.2-77 77 12.5-71.8 25.2-143.5 38-215.2h-60.4l-67.4 382m-363-278c-19.8 5.3-39.4 12.6-55.7 25l17.3 53.4c4.8-3.7 9-8 14-11.4 13.8-9.8 30.3-15 47-16.4 11-1 22.7-1.4 33.4 2.3 7 2.4 13.5 7.5 16.6 14.5 4.3 9.4 4.4 20 3.3 30.3-15.8-5.3-32.7-5-49-3-30.8 3.2-60.7 15-84.6 34.8-16.6 13.5-30.2 31.2-36.6 51.8-4.3 14.5-6 30-3 45 3.8 18.3 16 34.8 32 44.4 13.5 8 29.7 10.3 45 9.2 28.6-1 57.4-10 79.3-28.8 3.7 9.6 11 17.8 20.3 22 14.3 6.3 30.3 6.5 45.6 6.5l5.8-33.2c-4.3-2.4-8.7-5.2-11-9.8-4.6-9-4-19.6-2.5-29.4l16.5-93.7c3.7-21 5.7-43 .3-64.2-3.4-14.2-11.5-27.5-23.6-36-17-12.5-38.6-16.5-59.3-17.7-17-1-34.3.5-51 5m282-3c-30.6 4.4-59.8 17.6-82.6 38.4-24.8 21.8-42 51.4-50.7 83-5.6 20.7-8.5 42.2-7.2 63.6 1 14 4.2 28.2 10.4 41 7.5 15.8 19.4 29.5 34 39.2 21.7 14.5 48.6 18.8 74.2 17.4 33.4-1 67-9.7 95.4-27.5L950 675.4c-14.3 10-29.5 19.2-46.4 24.2-16.6 5.2-34.8 5-51.5.2-14-4-26.2-14-32-27.4-6-13.2-6.5-28-5.3-42 2.2-21 7.6-42 18.2-60.4 9-15.6 22.2-29.2 38.4-37.6 26.8-13.6 60.2-11.3 86 3.8 4.2 2.5 7 6.6 10.2 10.4 13-14.4 25.7-29 38.6-43.3-5-4.8-10.3-9.4-16.5-12.8-13-7.3-27.2-13-41.8-16.4-18.4-4.4-37.6-3.5-56-1z"/>
    <path d="M609.5 276.2c13.7-7 29.2-10 44.5-10 7.6.3 15 2 22.4 3.5-3.3 18.3-6.3 36.6-9.8 55-9.8 10-21.4 18.7-34.4 24.4-14.3 6.2-30.7 7.6-45.7 3.4-7-1.8-14-7-15.5-14.4-2.2-10.3.2-21.2 4.8-30.5 7.3-14 20-24.2 33.8-31.3zM424.4 440c11.3 0 22.7.8 33.6 3.8 9 2.8 18.2 7.4 23.4 15.6 4 5.7 5.2 12.7 5.8 19.5.3 13.3-3 26.7-8 39-6.3 14.4-17.3 26.6-30.6 34.7-9 5.7-19 9.8-29.4 12.5-17.6 4.2-36 5.3-54 2.7-6.2-.8-12.2-2.2-18-4.3 6.5-16.3 13.4-32.4 20-48.6l7.5-18 1.6-4c4.8-11.7 9.8-23.3 14.4-35 2.2-5 4-9.8 6-14.7 9.2-1.7 18.4-2.6 27.7-3.2zM603.4 631.6c15.8-10.3 35-14.6 53.6-14.3 7 .3 14 2 21 3.3-3.2 18.3-6.4 36.5-9.8 54.8-7.8 8.5-17.3 15.6-27.4 21.2-16 9-35.3 11.7-53 6.8-6.8-2-13.3-6.7-15-14-2.2-8.3-.8-17.2 2-25.3 5.2-13.8 16.4-24.6 28.6-32.4z"/>
  </g>
  <path d="M82.4 42.7c3.5-1 7-.7 10.6-.7h1171c8 1 16 3.6 24 5.3 4 2 7.2 5.2 11 7.7 3.8 2 5.7 6.3 8.3 9.6 2 3 4.8 5.6 5.3 9.3 1.4 7 3.7 13.8 4.6 21v683c-1.2 8-3.5 16-5.4 24-2.5 4-5.5 7.7-8.2 11.6-2 3.3-5.6 5-8.6 7.3-3 2-5.7 5-9.5 5.3-8.8 1.6-17.4 5.3-26.5 4.7H87c-8.3-1.2-16.4-3.6-24.5-5.5-4.5-3-9-6.3-13.4-9.6-3.4-4.6-6.8-9.3-10-14-1.8-8-4-16-5.3-24V100c-.6-8.6 3-16.8 4.4-25 1-6 5.6-9.8 8.5-14.5 2.3-4 6.6-6 10-8.8 2.8-1.8 5-4.4 8.3-5 6-1.2 11.8-2.6 17.6-4M84.8 93v687h1181.4V93H84.8z"/>
  <path d="M113.2 118.8H178L203.7 351C242 273.8 280 196.3 318 118.8h27.3l31 232.2c36.3-77.5 73-155 109.3-232.3h66l-128 264.8c18.3.2 36.6 2 54.5 6 2.8.7 5.8.8 8.3 2.3 16.7 4 32.8 11.7 45.5 23.4 12.4 11.3 20 27.3 22 44 2 16 0 32.2-4 47.8-2.6 10-6 19.7-10.5 29-7.3 15.5-17.4 29.7-29.8 41.5-14.8 14.4-32.7 25.3-51.6 33.2-10 4-20 7.6-30.6 9.5-2.4 1-5 1.3-7.5 1.7-31.6 5.6-64.4 4.6-95.4-3.8-12 29-23.8 57.8-36 86.6-2 4.7-3.6 9.4-5.7 14L281 723l-7 17c-1.8 4-3.3 7.8-4.8 11.6-21.7-1-43.4-2.3-65.2-3.3l36-86 15.7-37.4c1.6-3.8 2.8-7.8 4.8-11.4 5.6-14.7 12-29 18-43.6 2.8-6.3 5.3-12.8 8-19 2.8-6.4 5.2-13 8-19.2 5.8-13.5 11.3-27.3 17-41 7.4-17.2 14.6-34.5 21.8-52 1.4-2.7.2-5.8-.2-8.7l-28-167c-38.6 77.3-77 154.5-115.7 231.8H164c-17-125.4-34-250.7-50.8-376M424.4 440c-9.3.7-18.5 1.6-27.7 3.3-2 5-3.8 9.8-6 14.6-4.6 11.7-9.6 23.3-14.4 35l-1.6 4-7.5 18c-6.6 16.3-13.5 32.5-20 48.7 5.8 2 11.8 3.5 18 4.2 18 2.5 36.4 1.4 54-2.8 10.3-2.8 20.3-6.8 29.4-12.5 13.3-8 24.3-20.3 30.5-34.6 5.3-12.3 8.4-25.7 8.2-39-.6-7-1.8-14-5.8-19.6-5.2-8.2-14.3-12.8-23.4-15.6-11-3-22.3-3.7-33.6-3.7z"/>
  <path d="M604.2 126c17-4.8 35-7.2 52.8-6 21.2 1 43.3 4.6 61 17 12.6 8.6 21 22.3 24.6 37 5 19.2 3.6 39.5.5 59-5 30-10.5 60-15.7 90-2.2 11.7-4.5 24.3 0 36 2 5.6 7 9.3 12 12.2l-6 33c-15.4 0-31.5 0-46-6.6-9.2-4.2-16.2-12.4-19.7-21.8-21.8 18.5-50.3 27.7-78.7 28.7-15.8 1.2-32.4-1-46-9.3-16.5-10-28.7-27-32-46.2-2.8-15.6-.6-31.7 4.6-46.6 6-17.4 17.5-32.6 31.3-44.7 13.6-12 29.5-21.6 46.6-28.2 20.5-8 42.5-11.3 64.4-11.3 9 0 18 1.7 26.5 4.3 1.2-12 1.2-25.5-6.4-35.5-6.8-9-18.5-11.6-29-12.2-18.8-.6-38 2.3-54.6 11-9 4.3-16.5 11-24.2 17.4L553 149.8c15-11.5 33-18.6 51.2-23.8m5.3 150.2c-13.7 7-26.4 17.4-33.7 31.3-4.6 9.3-7 20.2-4.8 30.5 1.6 7.5 8.4 12.6 15.5 14.4 15 4.2 31.4 2.8 45.7-3.3 13-5.6 24.6-14.2 34.4-24.4 3.5-18.3 6.5-36.6 9.8-55-7.4-1.5-14.8-3.2-22.4-3.4-15.3 0-30.8 3-44.5 10zM743.4 121.3h65.2c11 57 22.6 113.6 33.8 170.4l96-170.4h64.5L832.6 401.8h-21.2c-22.6-93.6-45.5-187-68-280.5zM973.2 753.8l67.4-382h60.3c-12.8 71.7-25.5 143.4-38 215.2 25.5-25.8 51.5-51 77-77 10.5-10.5 21.2-20.7 31.7-31.3h73.4c-36.6 35.8-73 71.8-109.8 107.7 25.3 55.8 50.8 111.5 76 167.4H1146l-57-126.5c-12.8 11-25.6 22.3-38.4 33.5-1.2.8-1 2.4-1.4 3.6l-15.7 89.4h-60.3zM610 476c16.7-4.5 34-6 51-5 20.8 1.3 42.3 5.3 59.4 17.7 12 8.6 20.2 22 23.7 36 5.5 21 3.5 43.2-.2 64.4l-16.5 94c-1.5 9.6-2 20.2 2.5 29.3 2.3 4.5 6.7 7.3 11 9.8-2 11.2-3.8 22.2-6 33.3-15.2 0-31.2-.2-45.5-6.5-9.4-4.2-16.6-12.4-20.2-22-21.8 18.7-50.6 27.8-79 28.8-15.5 1-31.7-1-45.2-9.2-16-9.6-28.2-26-32-44.5-3-15-1.3-30.5 3-45 6.4-20.5 20-38.2 36.6-51.7 24-19.7 53.8-31.6 84.5-34.8 16.3-2 33.2-2.3 49 3 1-10.2 1-21-3.2-30.3-3-7-9.5-12-16.6-14.5-10.8-3.7-22.3-3.3-33.4-2.3-16.7 1.5-33.2 6.6-47 16.4-5 3.4-9.2 7.7-14 11.4l-17.3-53.4c16.3-12.4 36-19.7 55.6-25m-6.6 155.8C591 639.4 580 650.2 575 664c-3 8.2-4.4 17-2.3 25.5 1.8 7.2 8.3 12 15 14 17.8 4.8 37.2 2 53-7 10.2-5.5 19.7-12.6 27.5-21 3.4-18.4 6.6-36.6 9.7-55-7-1.2-14-3-21-3.2-18.7-.3-37.8 4-53.6 14.3zM892 473c18.4-2.7 37.6-3.6 56 .8 14.5 3.5 28.6 9 41.8 16.4 6 3.4 11.4 8 16.4 13-13 14.2-25.6 28.8-38.6 43.2-3-3.8-6-8-10.4-10.4-25.6-15-59-17.4-85.8-3.8-16.2 8.4-29.4 22-38.5 37.6-10.7 18.4-16 39.4-18.3 60.4-1.2 14-.7 28.8 5.2 42 5.8 13.4 18 23.4 32 27.4 16.8 4.8 35 5 51.6-.2 17-5 32-14.3 46.5-24.2 5.3 17.6 10.4 35.3 15.6 53-28.5 17.7-62 26.3-95.4 27.4-25.6 1.4-52.5-3-74.2-17.4-14.6-9.7-26.5-23.4-34-39-6.3-13-9.5-27-10.5-41.2-1.3-21.4 1.6-43 7.2-63.5 8.6-31.7 26-61.3 50.7-83 22.8-21 52-34 82.5-38.6z"/>
</svg>
