<?xml version="1.0" encoding="UTF-8"?>
<svg inkscape:version="1.0.2 (e86c870879, 2021-01-15, custom)" sodipodi:docname="WebM_logo.svg" version="1.1" viewBox="0 0 554 142" xmlns="http://www.w3.org/2000/svg" xmlns:cc="http://creativecommons.org/ns#" xmlns:dc="http://purl.org/dc/elements/1.1/" xmlns:inkscape="http://www.inkscape.org/namespaces/inkscape" xmlns:rdf="http://www.w3.org/1999/02/22-rdf-syntax-ns#" xmlns:sodipodi="http://sodipodi.sourceforge.net/DTD/sodipodi-0.dtd" xmlns:xlink="http://www.w3.org/1999/xlink">
 <defs>
  <filter id="cvfc" color-interpolation-filters="sRGB" inkscape:collect="always">
   <feGaussianBlur inkscape:collect="always" stdDeviation="0.82730657"/>
  </filter>
  <linearGradient id="cvfb" x1="20.3" x2="20.3" y1="2.55" y2="46.9" gradientUnits="userSpaceOnUse" inkscape:collect="always">
   <stop style="stop-color:#8ae234" offset="0"/>
   <stop style="stop-color:#4e9a06" offset="1"/>
  </linearGradient>
  <linearGradient id="cvfa" x1="6.48" x2="25.4" y1="4.54" y2="35.2" gradientTransform="matrix(2.01 0 0 2.01 410 110)" gradientUnits="userSpaceOnUse" inkscape:collect="always">
   <stop style="stop-color:#fff;stop-opacity:.549" offset="0"/>
   <stop style="stop-color:#fff;stop-opacity:0" offset="1"/>
  </linearGradient>
 </defs>
<title>WebM logo</title>
 <metadata>
  <rdf:RDF>
   <cc:Work rdf:about="">
    <dc:format>image/svg+xml</dc:format>
    <dc:type rdf:resource="http://purl.org/dc/dcmitype/StillImage"/>
    <dc:title/>
    <dc:date>2012</dc:date>
    <dc:creator>
     <cc:Agent>
      <dc:title>Lo</dc:title>
     </cc:Agent>
    </dc:creator>
   </cc:Work>
  </rdf:RDF>
 </metadata>
 <g transform="translate(-88.7 -72.8)" inkscape:groupmode="layer" inkscape:label="Layer 1">
  <path transform="matrix(2.12 0 0 2.12 417 106)" d="m39.5 24.7-38.4 22.2v-22.2-22.2l19.2 11.1z" style="fill-opacity:.287;filter:url(#cvfc)" inkscape:flatsided="false" inkscape:randomized="0" inkscape:rounded="0" sodipodi:arg1="0" sodipodi:arg2="1.0471976" sodipodi:cx="13.857143" sodipodi:cy="24.714287" sodipodi:r1="25.596954" sodipodi:r2="12.798477" sodipodi:sides="3" sodipodi:type="star"/>
  <path transform="matrix(1.91 0 0 1.91 420 111)" d="m39.5 24.7-38.4 22.2v-22.2-22.2l19.2 11.1z" style="fill:url(#cvfb);stroke-linejoin:round;stroke-width:1.05;stroke:#366a04" inkscape:flatsided="false" inkscape:randomized="0" inkscape:rounded="0" sodipodi:arg1="0" sodipodi:arg2="1.0471976" sodipodi:cx="13.857143" sodipodi:cy="24.714287" sodipodi:r1="25.596954" sodipodi:r2="12.798477" sodipodi:sides="3" sodipodi:type="star"/>
  <path d="m424 196v-76.6l66.1 38.2" style="fill:none;stroke-width:2.01;stroke:url(#cvfa)" inkscape:connector-curvature="0" sodipodi:nodetypes="ccc"/>
  <g style="fill:#333;stroke-width:2.25;stroke:#292929">
   <path d="m511 206c-3.54 0-5.31-1.77-5.31-5.31v-82.3c-1e-5 -3.54 1.77-5.31 5.31-5.31h14c3.54 9e-5 5.31 1.77 5.31 5.31v5.13h0.354c1.71-3.77 4.6-6.75 8.67-8.94 4.07-2.18 7.87-3.27 11.4-3.27 7.08 9e-5 12.6 1.65 16.5 4.95 3.95 3.3 6.67 6.99 8.14 11.1h0.354c5.13-6.67 9.76-11 13.9-13 4.19-2.01 9.53-3.01 16-3.01 8.73 9e-5 16.1 2.89 22 8.67 6.02 5.78 9.02 16.3 9.02 31.7v49c-1.4e-4 3.54-1.77 5.31-5.31 5.31h-14.2c-3.54 0-5.31-1.77-5.31-5.31v-42.6c-1.2e-4 -12.9-0.885-21-2.65-24.3-1.71-3.36-4.78-5.04-9.2-5.04-4.13 8e-5 -7.9 2.42-11.3 7.26-3.42 4.84-5.13 14.8-5.13 29.9v34.9c-9e-5 3.54-1.77 5.31-5.31 5.31h-14.2c-3.54 0-5.31-1.77-5.31-5.31v-42.6c-7e-5 -12.9-0.885-21-2.65-24.3-1.71-3.36-4.78-5.04-9.2-5.04-4.13 8e-5 -7.9 2.42-11.3 7.26-3.42 4.78-5.13 14.7-5.13 29.9v34.9c-4e-5 3.54-1.77 5.31-5.31 5.31h-14.2" inkscape:connector-curvature="0"/>
  </g>
  <g style="fill:#333;stroke-width:2.24;stroke:#292929">
   <path d="m172 115 16.5 46.4 3.26 15h0.725l2.54-15.2 11.6-46.2h21.6l-27.9 91.5h-17.4l-18.3-50.7-2.36-11.4h-0.906l-2.17 11.6-17.4 50.6h-17.9l-29.2-91.5h25.5l13.2 45.5 2.17 16.1h0.906l3.08-16.3 15-45.3z" inkscape:connector-curvature="0"/>
   <path d="m308 198c-3.62 2.9-8.58 5.38-14.9 7.43-6.16 1.93-12.7 2.9-19.8 2.9-14.6-1e-5 -25.3-4.23-32.1-12.7-6.76-8.58-10.1-20.3-10.1-35.2-1e-5 -15.9 3.81-27.9 11.4-35.9 7.61-7.97 18.3-12 32.1-12 4.59 1e-4 9.06 0.604 13.4 1.81 4.35 1.21 8.21 3.2 11.6 5.98 3.38 2.78 6.1 6.52 8.15 11.2 2.05 4.71 3.08 10.6 3.08 17.6-8e-5 2.54-0.181 5.25-0.544 8.15-0.242 2.9-0.664 5.92-1.27 9.06h-54.4c0.362 7.61 2.3 13.3 5.8 17.2 3.62 3.87 9.42 5.8 17.4 5.8 4.95 2e-5 9.36-0.725 13.2-2.17 3.99-1.57 7.01-3.14 9.06-4.71zm-33.7-66.5c-6.16 7e-5 -10.8 1.87-13.8 5.62-2.9 3.62-4.65 8.52-5.25 14.7h33.7c0.483-6.52-0.544-11.5-3.08-15-2.42-3.5-6.28-5.25-11.6-5.25z" inkscape:connector-curvature="0"/>
   <path d="m328 78.9h23.6v43.5h0.725c2.54-2.9 5.8-5.19 9.78-6.89 3.99-1.69 8.4-2.54 13.2-2.54 10.9 9e-5 19.1 3.74 24.8 11.2 5.8 7.37 8.7 18.7 8.7 33.9-9e-5 16.3-4.05 28.7-12.1 37.1-7.97 8.46-19 12.7-33 12.7-7.73 0-14.8-0.664-21.2-1.99-6.4-1.21-11.2-2.6-14.5-4.17zm40.4 54c-4.35 7e-5 -7.91 1.15-10.7 3.44-2.66 2.17-4.71 5.38-6.16 9.6v39.5c1.93 0.966 3.99 1.63 6.16 1.99 2.3 0.362 4.71 0.544 7.25 0.544 6.4 1e-5 11.2-2.3 14.5-6.89 3.38-4.71 5.07-12.1 5.07-22.3-7e-5 -17.3-5.38-25.9-16.1-25.9z" inkscape:connector-curvature="0"/>
  </g>
 </g>
</svg>
