<?xml version="1.0" encoding="UTF-8"?>
<svg height="340" viewBox="0 0 510 340" width="510" xmlns="http://www.w3.org/2000/svg">
 <metadata/>
 <g transform="translate(-.81 1.62)">
  <path d="m59.5 336.865c-1.65-.23299-5.77084-1.2669-9.15742-2.2976-22.7902-6.93608-39.8295-24.0416-47.6537-47.8388l-2.18887-6.65742v-225l2.18887-6.65741c7.87291-23.9454 24.2084-40.2808 48.1537-48.1537l6.65742-2.18887h395l6.65742 2.18887c9.34154 3.07138 17.3418 7.31099 24.3817 12.9207 10.8824 8.67164 18.9897 20.6876 23.772 35.233l2.18887 6.65741v225l-2.18887 6.65742c-7.78979 23.6925-23.5632 39.629-47.63 48.1223l-6.18111 2.18134-195.5.12821c-107.525.0705-196.85-.0624-198.5-.29539zm396.755-31.9832c8.88892-4.19715 16.8589-12.1671 21.0561-21.0561l3.18936-6.75458v-219l-3.18936-6.75457c-4.19715-8.88893-12.1671-16.8589-21.0561-21.0561l-6.75458-3.18937h-389l-6.75458 3.18937c-8.88892 4.19715-16.8589 12.1671-21.0561 21.0561l-3.18936 6.75457v219l3.18936 6.75458c5.52494 11.701 17.556 21.483 29.3106 23.8313 1.925.38457 89.9.63507 195.5.55667l192-.14256zm-374.241-24.0212c-9.27673-1.83017-14.1418-13.491-9.05959-21.7142 3.93407-6.36545 5.23581-6.57564 40.6976-6.57148 29.8046.004 32.054.1288 35.0445 1.95226 9.29372 5.66674 9.53284 18.6287.44787 24.2782-3.56381 2.21618-4.31096 2.26882-34.1435 2.4058-16.775.077-31.6191-.0808-32.9869-.3506zm129.987-13.6607v-14.4984l30.75-.31513c27.769-.28458 31.0099-.49152 33.4305-2.13461 5.59781-3.79969 6.28416-6.00366 6.59595-21.1805.28254-13.7532.25619-13.951-1.49443-11.2186-.98012 1.52979-3.70813 3.71401-6.06223 4.85382-3.99079 1.93226-5.6135 2.04412-24 1.65434-18.9418-.40156-19.9928-.53087-26.6387-3.27778-9.26527-3.82954-18.3767-12.641-22.4431-21.7042-11.6612-25.9906 4.41261-55.2191 32.862-59.7559 7.20065-1.14828 30.3045-1.39227 36.4062-.38447 2.66556.44027 5.12701 1.86601 7.75 4.489l3.84381 3.84381v-9h29.0733l-.28666 60.75-.28667 60.75-2.66071 5c-3.38993 6.37036-8.01343 10.7873-14.3393 13.6988-4.9025 2.25635-5.75564 2.30733-43.75 2.61479l-38.75.31356zm64.2835-73.8926c4.13522-2.713 6.10134-6.45386 6.09884-11.604-.003-5.43525-2.30906-9.48959-6.78087-11.9197-3.97019-2.15751-30.8722-3.02435-37.6039-1.21169-10.4758 2.82086-14.2266 15.7383-6.6395 22.866 3.78254 3.55351 7.07828 4.05569 25.1894 3.83813 14.3737-.17267 17.4691-.48144 19.7361-1.96872zm77.7165 73.8907v-14.5187l30.25-.30406c27.5503-.27692 30.528-.47234 33.3645-2.1896 5.86226-3.54911 6.84816-6.5673 7.22375-22.1145l.33821-14-2.35814 3.5c-4.49222 6.66743-6.7024 7.16649-29.8183 6.73306-19.5918-.36736-20.7559-.50093-26.2758-3.01509-11.7785-5.36478-19.3766-12.9735-23.921-23.9544-1.71959-4.15516-2.19148-7.36952-2.24078-15.2636-.0855-13.689 2.44406-20.2151 11.4582-29.5614 11.1458-11.5565 21.5158-14.4826 48.7983-13.7694 16.1769.42286 18.2253 1.08658 22.1208 7.16745l2.02653 3.16341.0168-5.27746.0168-5.27745 14.25.27745 14.25.27746v120l-2.86031 5.5c-3.83689 7.37784-6.0541 9.63058-13.1397 13.3502l-6 3.14977-77.5.64543v-14.5186zm63.8068-73.6268c8.45993-5.5011 8.35455-18.44-.19234-23.6145-2.74556-1.6622-5.24652-1.88554-21.1145-1.88554-17.2459 0-18.1368.0976-21.2651 2.32884-4.60267 3.28287-6.56647 7.53723-5.96055 12.9129.57474 5.09914 4.4022 9.77936 9.18808 11.2352 1.67066.50821 10.6876.83381 20.0376.72355 13.1577-.15516 17.5214-.5395 19.3068-1.70047zm-326.807 30.0492c-16.9515-3.10376-31.0884-18.1155-33.9483-36.0492-1.37821-8.64245-1.36597-88.4696.0149-96.9806 3.09279-19.0629 17.4247-33.0491 36.9967-36.1041 4.61608-.72055 13.8846-.96999 24.4367-.65766 15.529.45964 17.649.74727 24.5 3.32395 6.37004 2.39579 8.55463 3.89375 14.5 9.94253 5.37672 5.47024 7.57974 8.61218 9.5 13.5488l2.5 6.42708v105l-2.45328 5.5c-5.11972 11.4779-12.019 18.3626-23.771 23.7206-5.57761 2.54298-6.49619 2.64223-26.7758 2.89294-11.55.14279-23.025-.11116-25.5-.56432zm40.0568-29.0485c1.95626-.54345 4.88126-2.37015 6.5-4.05934l2.94315-3.07125.27851-46.9296c.30752-51.8182.45128-50.5007-6.01342-55.1117-3.12829-2.23127-4.01922-2.32884-21.2651-2.32884-20.0068 0-22.3142.60839-26.1145 6.88555-1.75804 2.90386-1.90573 6.07016-2.18418 46.8269-.20745 30.3644.0481 45.0004.83704 47.9301 1.22832 4.56165 5.69656 9.4688 9.24801 10.1564 4.56097.8831 32.352.65135 35.7704-.29829z"/>
  <path d="m68.8743 307.189c-10.2599-.44868-10.6692-.53791-16.3198-3.55781-7.90701-4.22582-15.2615-11.9476-19.6026-20.5816l-3.33953-6.64201v-217.834l3.34869-6.66021c4.29088-8.53414 12.3509-16.7551 20.6506-21.063l5.78505-3.0027h391.336l5.78505 3.02305c8.31815 4.34675 16.3003 12.5441 20.6214 21.1774l3.37796 6.74897v217.732l-3.40076 6.5998c-4.71082 9.14222-12.5503 16.9784-21.4745 21.4654l-6.66022 3.3487-184.792-.14692c-101.635-.0808-189.527-.35402-195.316-.60714zm206.024-25.874c15.8928-.58666 16.7781-.70633 20.9161-2.82752 5.61398-2.87784 10.4123-7.77296 13.6911-13.9673l2.63095-4.97046v-121.607h-29.1429v9.24186l-3.44047-3.35962c-1.89226-1.84779-4.37703-3.71125-5.52169-4.14101-7.23022-2.71459-37.9306-1.58629-47.0663 1.72977-24.835 9.01462-35.7893 35.8517-24.3568 59.6718 3.10933 6.4784 12.9507 16.0572 19.8767 19.3464 7.44571 3.53606 11.9723 4.11961 31.9987 4.12506 18.6138.005 20.1784-.27308 25.1591-4.47263l2.72086-2.29409-.29389 12.4928c-.33694 14.3222-1.17751 16.7817-6.7179 19.6562-3.00536 1.55926-4.92962 1.67472-33.3929 2.00373l-30.2037.34912v29.7457l23.2738-.0554c12.8006-.0304 30.7417-.331 39.869-.66792zm162.843-3.08278c6.39251-3.43073 9.80861-6.95061 13.54-13.9514l2.52166-4.73111v-120.797h-5.9455c-3.27002 0-9.82717-.2375-14.5714-.52778l-8.62593-.52778v9.44223l-2.82574-3.30125c-3.93657-4.59899-7.55844-5.31964-26.6655-5.30568-17.6201.0129-24.0033 1.0294-32.1273 5.11622-7.04886 3.54597-15.7943 12.4824-19.4188 19.8429l-2.74841 5.5814v25.2115l3.03611 6.14546c3.54888 7.18337 9.52961 13.646 16.6071 17.9454 8.76367 5.32364 10.0926 5.58941 29.9787 5.99534 9.92776.20265 20.1278.11145 22.6667-.20268 4.09883-.50714 5.01655-.98771 8.18874-4.28816l3.57258-3.717-.50528 12.3092c-.61846 15.066-1.77149 18.4833-7.17883 21.2761-3.40635 1.75936-4.38795 1.82288-33.6634 2.17839l-30.1548.36619v30.006l78.5898-.99143zm-288.099.58186c8.86113-6.07446 8.16153-19.7548-1.27361-24.9051-2.28098-1.24512-5.72222-1.4455-28.9154-1.68372-27.3984-.28144-40.057.49937-43.3784 2.67564-4.8776 3.19592-6.69983 12.8822-3.57556 19.0062 1.48762 2.91598 4.423 5.63077 7.30404 6.75517.66786.26065 15.9951.40366 34.0606.31781l32.8463-.1561zm-4.1896-58.4449c9.88276-4.91782 15.5656-10.498 20.5813-20.2093l3.65982-7.0861-.21903-54.482-.21904-54.482-2.72989-5.5497c-3.63531-7.39037-13.1826-17.0967-19.9368-20.2688-8.05852-3.78473-14.0566-4.60047-33.8963-4.60991-13.7033-.0065-19.0547.29035-22.7704 1.26317-16.3032 4.26845-28.1531 15.9524-32.5551 32.0993-1.26162 4.62767-1.40588 10.0152-1.3955 52.1136.01283 52.0355-.00012 51.8876 5.45847 62.3333 5.30779 10.1571 17.9126 20.1287 28.0874 22.2199 2.00357.41177 13.6958.68076 25.9826.59775l22.3398-.15095z" fill="#fff" stroke="#fff" stroke-width=".81"/>
  <path d="m102.721 194.61c-8.70996-.38922-9.1558-.49803-11.608-2.83333-5.50856-5.24598-5.2413-2.5707-5.21625-52.2143.03021-59.88-2.16015-55.2902 26.5873-55.7124 19.0812-.28018 20.615-.03748 24.3408 3.85149 1.61501 1.68571 2.35463 3.57257 2.91216 7.42928.41103 2.84333.75465 24.6786.76361 48.5228l.0163 43.3531-2.63095 2.49674c-1.44702 1.37321-3.72381 3.03975-5.05952 3.70341-2.81904 1.40068-16.2023 2.02445-30.1055 1.40316z" fill="#fff" stroke="#fff" stroke-width=".81"/>
  <path d="m234.432 192.768c-9.1774-4.85313-8.39195-18.093 1.36076-22.9373 2.64689-1.31476 4.96491-1.53059 16.4386-1.53059 17.5507 0 21.9731.65481 25.5332 3.78062 4.98378 4.37582 5.61526 12.7354 1.34534 17.8099-3.6371 4.32245-5.67869 4.71897-24.2967 4.71897-16.0192 0-17.0799-.0958-20.3812-1.8416z" fill="#fff" stroke="#fff" stroke-width=".81"/>
  <path d="m376.158 192.84c-4.22775-2.87658-5.96138-5.75678-6.34555-10.5423-.39936-4.97481 1.52581-8.59362 6.274-11.7934 2.74831-1.85209 3.08163-1.87788 21.1736-1.63832 21.0081.27819 21.3504.37977 24.8599 7.37835 2.68942 5.3632 1.94626 10.0428-2.32186 14.6205l-3.11387 3.33976-18.8864.25444c-18.6119.25075-18.9264.22722-21.6398-1.61905z" fill="#fff" stroke="#fff" stroke-width=".81"/>
 </g>
</svg>
