<?xml version="1.0" standalone="no"?><!DOCTYPE svg PUBLIC "-//W3C//DTD SVG 1.1//EN" "http://www.w3.org/Graphics/SVG/1.1/DTD/svg11.dtd"><svg width="100%" height="100%" viewBox="0 0 135 135" version="1.1" xmlns="http://www.w3.org/2000/svg" xmlns:xlink="http://www.w3.org/1999/xlink" xml:space="preserve" style="fill-rule:evenodd;clip-rule:evenodd;stroke-miterlimit:1.41421;"><g id="Layer1"><g><path id="path3437" d="M24.6728,42.7322l42.0405,-42.0411l47.481,47.4817l-47.481,47.4804l-44.1654,-44.1705" style="fill:#3f6086;stroke-width:0.94px;stroke:#082d51;"/><path id="path3439" d="M41.4193,28.5317c0,0 15.3774,-11.1425 23.7905,-10.6606c8.41752,0.480036 16.6114,4.71926 16.6114,4.71926l2.18339,4.59109c0,0 5.92374,2.70049 7.23943,4.46291c1.28805,1.72346 1.25475,1.58775 4.66963,11.2154c0,0 -33.5821,3.40986 -36.8619,-0.104931c-3.28042,-3.5173 -17.6324,-14.2231 -17.6324,-14.2231l7.10543e-15,0Z" style="fill:#82d6e0;stroke-width:0.92px;stroke:#3a9cdd;"/><path id="path3441" d="M82.0504,43.6891c3.00271,-1.3691 12.5757,-2.32916 16.754,-4.44594c3.18304,-1.6154 17.1869,-7.18477 21.3319,-4.40951c2.25942,1.51361 -5.48643,14.6762 -8.39238,17.9534c-2.87768,3.24901 -0.58496,13.2122 -1.07379,14.5964c-1.01284,2.85694 -7.71821,3.93576 -9.33611,3.35582c-1.51926,-0.542863 -10.7951,-3.36273 -14.9067,-5.03719c-3.3464,-1.36344 -5.57064,-3.43499 -15.1235,-2.22235c-9.54975,1.21013 10.7467,-19.7906 10.7467,-19.7906l-4.26326e-14,-1.42109e-14Z" style="fill:#82d6e0;stroke-width:0.92px;stroke:#33bdf2;"/><path id="path3443" d="M53.41,66.0401c0,0 8.18127,3.37718 13.5326,3.30619l5.48078,-0.946869c0,0 4.4736,-2.87014 -0.0936202,-5.85902" style="fill:#82d6e0;stroke-width:0.92px;stroke:#3a9cdd;"/><path id="path3445" d="M63.8099,64.4675c-5.99789,2.30906 -24.6349,4.1764 -31.2435,-1.02666c-3.73281,-2.93988 -8.54758,-15.1355 -8.54758,-15.1355c0,0 4.5779,-8.508 5.05918,-8.69587c0,0 -2.39199,-5.71012 9.65153,-9.70054c7.70061,-2.5497 6.93722,-2.94993 17.1593,-1.96411c6.37676,0.613862 16.6905,6.02553 19.0184,8.45145c4.00299,4.17012 13.9347,7.24886 17.7084,7.65098c3.77868,0.402121 6.19895,0.0150554 6.19895,0.0150554c0,0 -1.25223,8.39051 -4.86566,13.0507c-3.61595,4.6602 -6.35917,5.12516 -6.35917,5.12516c0,0 -5.89045,0.140742 -11.3386,0.222421c-8.09708,0.116866 -12.4412,2.00683 -12.4412,2.00683l0,2.57357e-05Z" style="fill:#f8ac16;stroke-width:0.92px;stroke:#f7a30e;"/><path id="path3447" d="M22.5026,46.8992c0,0 6.00291,-16.4964 20.4767,-17.535c12.9037,-0.922362 20.5302,9.4511 20.5126,16.9475c-0.0226474,9.29025 -6.9014,18.098 -15.9906,19.08c-11.0137,1.18751 -16.3016,-1.98987 -16.6346,-3.14471c-0.331122,-1.1605 -10.5909,-11.1953 -8.36411,-15.3478l0,-1.42109e-14Z" style="fill:#fcd24c;stroke-width:1px;stroke:#f7a30e;"/><path id="path3449" d="M33.5107,62.7082c-1.10457,0.870215 -0.173414,0.500135 -4.67968,1.1228c-3.18116,0.441072 -6.42765,-0.0929961 -8.21961,-2.41713c-1.57518,-2.04579 0.552289,-2.37691 3.5349,-2.56666c1.33328,-0.0867037 2.73316,0.0200739 2.38445,-0.620772c-1.39737,-2.56038 -3.97723,-5.50717 -7.04403,-5.86342c-6.52692,-0.754604 -4.83236,-5.33878 -4.83236,-5.33878c0.382015,-1.62985 4.93415,-1.95909 8.93211,-1.17684l10.4074,12.0837" style="fill:#82d6e0;stroke-width:1.21px;stroke:#33bdf2;"/><path id="path3451" d="M49.4171,36.1619c0.0665977,4.99636 -3.87042,9.10364 -8.80205,9.17276c-4.92598,0.0647189 -8.9698,-3.93576 -9.03075,-8.93651c-0.0659736,-4.99949 3.87042,-9.1049 8.79702,-9.1715c4.92913,-0.0659736 8.97233,3.9345 9.03578,8.93525Z" style="fill:#fff;fill-rule:nonzero;stroke-width:0.95px;stroke:#d89026;"/><path id="path3453" d="M42.5747,36.1959c0.0125655,1.0009 -0.78099,1.82399 -1.76368,1.83908c-0.984566,0.0100369 -1.79635,-0.788537 -1.80891,-1.78944c-0.0157117,-1.00091 0.775965,-1.82399 1.76305,-1.83719c0.985196,-0.0119671 1.79195,0.78853 1.80954,1.78755Z" style="fill:#221d1d;fill-rule:nonzero;"/><path id="path3455" d="M62.2095,48.1338c0,0 12.6191,-0.651564 13.4001,-1.29936c0.77848,-0.651558 1.74294,0.458045 1.90882,1.25538c0.167758,0.797325 -9.1715,9.39329 -11.3825,9.26449c-2.20853,-0.134456 -11.1815,0.507052 -10.8837,-0.775341" style="fill:#82d6e0;stroke-width:0.92px;stroke:#33bdf2;"/></g><g><path id="path3457" d="M27.6368,98.2405c0,1.45917 -1.04422,2.1316 -2.17355,2.1316c-1.29349,0 -2.12978,-0.921102 -2.12978,-2.04709c0,-1.38074 1.04392,-2.21277 2.25533,-2.21277c1.25337,0 2.048,0.959403 2.048,2.12826Z" style="fill:#100f0d;fill-rule:nonzero;"/><path id="path3459" d="M33.7663,111.778c0,-1.63275 0,-1.8419 -1.12599,-2.59124l-0.374216,-0.249579c-0.169021,-0.169021 -0.169021,-0.628658 0.0392131,-0.7536c1.08586,-0.459637 3.04845,-1.46342 4.13522,-2.25624c0.252923,0 0.4186,0.0845119 0.504631,0.291532c-0.086031,0.752688 -0.17054,1.38043 -0.17054,1.92458c0,0.291529 0.0845088,0.540803 0.376648,0.540803c0.544146,-0.249274 3.17491,-1.9641 5.85066,-1.9641c4.21791,0 6.93227,3.42509 6.93227,7.64665c0,5.80445 -4.26229,9.98376 -10.1917,9.98376c-0.7536,0 -1.92063,-0.0835999 -2.29576,-0.167197c-0.378475,0.0835968 -0.587621,0.292139 -0.587621,1.16946l0,4.38784c0,2.96637 0.086031,3.34058 1.58745,3.5476l1.62849,0.212492c0.292746,0.208539 0.208237,0.918366 -0.0839018,1.04148c-2.00514,-0.0835968 -3.21655,-0.123115 -4.67937,-0.123115c-1.50355,0 -2.75509,0.0395182 -3.92486,0.123115c-0.29062,-0.123115 -0.374216,-0.832942 -0.085424,-1.04148l0.87915,-0.128892c1.54642,-0.208539 1.58563,-0.624708 1.58563,-3.6312l0,-17.9627M36.8591,119.548c0,1.33271 0.417688,1.83521 1.25337,2.50491c0.837197,0.627136 2.13221,0.919275 3.00801,0.919275c3.42509,0 5.43054,-3.17491 5.43054,-7.52171c0,-3.34058 -1.87959,-6.72129 -5.63969,-6.72129c-1.79508,0 -3.08949,0.666352 -3.55004,1.16642c-0.376648,0.461156 -0.502197,1.08586 -0.502197,2.46539l0,7.18701l0,0Z" style="fill:#100f0d;fill-rule:nonzero;"/><path id="path3461" d="M53.7976,100.205c0,-2.46539 -0.037087,-2.71679 -1.29349,-3.46522l-0.412823,-0.25353c-0.214316,-0.123118 -0.214316,-0.711651 0,-0.835678c1.04057,-0.334091 3.00315,-0.959406 4.51005,-1.75465c0.169933,0 0.335,0.0820777 0.417078,0.251705c-0.0404303,1.25276 -0.125549,3.34059 -0.125549,5.18005l0,8.77416c0,0.373606 0.0434716,0.705873 0.169021,0.791294c1.50446,-1.16977 3.50626,-2.17355 5.63695,-2.17355c3.96955,0 5.3895,2.4666 5.3895,5.39011l0,6.97848c0,3.00467 0.0835968,3.46431 1.58654,3.6309l1.13024,0.128892c0.289708,0.20702 0.208237,0.916237 -0.0887642,1.04179c-1.50203,-0.0829897 -2.71102,-0.125549 -4.17201,-0.125549c-1.5069,0 -2.75692,0.0425595 -3.88716,0.125549c-0.293963,-0.125549 -0.375129,-0.834766 -0.0796465,-1.04179l0.830511,-0.128892c1.54398,-0.247755 1.58837,-0.626227 1.58837,-3.6309l0,-5.97621c0,-2.67241 -1.2938,-4.47083 -3.96681,-4.47083c-1.41935,0 -2.50764,0.50159 -3.25851,1.12934c-0.752688,0.627139 -0.878237,0.835678 -0.878237,2.29758l0,7.02012c0,3.00467 0.085119,3.42418 1.5905,3.6309l0.876715,0.128892c0.287273,0.165071 0.206718,0.916237 -0.086333,1.04179c-1.25093,-0.0829897 -2.46569,-0.125549 -3.92577,-0.125549c-1.50598,0 -2.75783,0.0425595 -4.09479,0.125549c-0.292136,-0.125549 -0.374213,-0.834766 -0.0829897,-1.04179l1.04331,-0.128892c1.54702,-0.16659 1.58411,-0.626227 1.58411,-3.6309l-2.84217e-14,-18.8832Z" style="fill:#100f0d;fill-rule:nonzero;"/><path id="path3463" d="M74.5248,122.053c0,-1.42087 1.00105,-2.46387 2.33558,-2.46387c1.41813,0 2.33984,1.1269 2.33984,2.46387c0,1.33696 -0.921706,2.29728 -2.33984,2.29728c-1.21141,0 -2.33558,-0.876413 -2.33558,-2.29728Z" style="fill:#f8ac16;stroke-width:0.6px;stroke:#f7a30e;"/><path id="path3465" d="M100.288,115.368c0,5.22261 -3.59381,8.98179 -8.81277,8.98179c-4.80902,0 -8.56517,-3.38558 -8.56517,-8.60666c0,-5.26365 3.96955,-9.02374 8.89713,-9.02374c4.67603,0 8.48081,3.50991 8.48081,8.64861M91.3045,107.975c-2.7554,0 -4.80173,2.63137 -4.80173,7.22775c0,3.7984 1.71148,7.89258 5.38601,7.89258c3.67771,0 4.80553,-3.83974 4.80553,-7.06025c0,-3.54912 -1.41965,-8.06008 -5.38981,-8.06008l5.68434e-14,0Z" style="fill:#4f4c4d;fill-rule:nonzero;"/><path id="path3467" d="M104.575,111.778c0,-1.63275 0,-1.8419 -1.13025,-2.59124l-0.379384,-0.249579c-0.163548,-0.169021 -0.163548,-0.628658 0.0468148,-0.7536c0.957579,-0.333176 3.17308,-1.41995 4.21578,-2.04679c0.209149,0.0434684 0.334393,0.124637 0.334393,0.293048l0,2.4204c0,0.210973 0.0419525,0.336522 0.127678,0.375736c1.45856,-1.20898 3.04905,-2.50582 4.5903,-2.50582c1.04817,0 1.88354,0.669088 1.88354,1.67196c0,1.37892 -1.12964,1.92245 -1.79782,1.92245c-0.418902,0 -0.625617,-0.124939 -0.918061,-0.293048c-0.629875,-0.416169 -1.25124,-0.667267 -1.8349,-0.667267c-0.671825,0 -1.17402,0.375129 -1.50659,0.835376c-0.416471,0.582755 -0.544149,1.79751 -0.544149,3.21595l0,5.68316c0,3.00467 0.085726,3.50717 1.67136,3.6309l1.50538,0.128892c0.289403,0.20702 0.21097,0.916237 -0.0869431,1.04179c-1.95772,-0.0829897 -3.1743,-0.125549 -4.62921,-0.125549c-1.5072,0 -2.76269,0.0425595 -3.84795,0.125549c-0.288792,-0.125549 -0.376953,-0.834766 -0.0820777,-1.04179l0.790382,-0.128892c1.54733,-0.247755 1.59171,-0.626227 1.59171,-3.6309l0,-7.31074Z" style="fill:#4f4c4d;fill-rule:nonzero;"/><path id="path3469" d="M132.343,108.224c0.457813,0.210363 0.378167,1.62788 -0.249884,1.71148l-3.01075,0c0.0881571,0.714082 0.0881571,1.4233 0.0881571,2.13252c0,2.88095 -1.71392,6.64165 -7.02164,6.64165c-0.753905,0 -1.33757,-0.0845119 -1.83795,-0.125549c-0.499766,0.293048 -1.83612,1.08586 -1.83612,2.29637c0,0.965483 0.960617,1.75496 2.92016,1.75496c1.42573,0 3.13661,-0.123118 4.97334,-0.123118c2.33771,0 5.8464,0.417078 5.8464,4.59395c0,4.55291 -4.96725,7.89349 -10.4008,7.89349c-5.13749,0 -6.93227,-2.75297 -6.93227,-4.84262c0,-0.670608 0.164762,-1.21233 0.460244,-1.54398c0.710129,-0.753295 1.87989,-1.8425 2.84173,-2.80282c0.375129,-0.374518 0.711343,-0.750254 0.332569,-1.00075c-1.63062,-0.416166 -3.04845,-1.83764 -3.04845,-3.30106c0,-0.208539 0.162941,-0.374216 0.62501,-0.708305c0.711953,-0.461462 1.50234,-1.17038 2.21246,-1.92306c0.210973,-0.252011 0.420119,-0.58458 0.420119,-0.79555c-1.42269,-0.749952 -3.13235,-2.38027 -3.13235,-5.05268c0,-3.59168 3.08858,-6.30938 6.80824,-6.30938c1.58867,0 3.04966,0.421031 4.00724,0.835678c1.3394,0.587621 1.63244,0.668786 2.54503,0.668786l3.38953,0M123.613,125.103c-1.33879,0 -3.00832,0.0854209 -3.59199,0.45903c-1.00439,0.625315 -2.00757,1.92063 -2.00757,3.50778c0,2.25472 1.79782,4.13674 5.59956,4.13674c3.7142,0 6.18323,-2.09056 6.18323,-4.47083c0,-2.54838 -1.75526,-3.63272 -4.76176,-3.63272l-1.42147,0M126.202,113.154c0,-2.83991 -1.16734,-5.22261 -3.71905,-5.22261c-2.00575,0 -3.50869,1.83916 -3.50869,4.67846c0,2.96698 1.79842,4.88852 3.80417,4.88852c2.25624,0 3.42358,-1.79691 3.42358,-4.34437Z" style="fill:#4f4c4d;fill-rule:nonzero;"/><path id="path3471" d="M19.3655,122.804c2.87396,0.435625 4.84444,-0.711041 4.84444,-3.71571l0,-7.31074c0,-1.63275 0,-1.8419 -1.12781,-2.59124l-0.374216,-0.249579c-0.168109,-0.169021 -0.168109,-0.628658 0.0419494,-0.7536c0.957884,-0.333176 3.3415,-1.41995 4.30333,-2.04679c0.20763,0 0.372697,0.0820777 0.417081,0.252618c-0.0845119,1.46099 -0.167502,3.46309 -0.167502,5.1767l0,7.52262c0,3.00467 0.0829897,3.42418 1.58745,3.6309l0.876413,0.128892c0.291529,0.20702 0.207627,0.916237 -0.0835968,1.04179l-0.00485611,0.0170244c-1.5455,-0.0802535 -5.28189,-0.117951 -8.74133,-0.123118c-1.54672,-0.00638454 -7.76035,0.0428645 -9.09883,0.123118c-0.333481,-0.123118 -0.418597,-0.837197 -0.124332,-1.04543l0.00880949,-0.0133761l1.2102,-0.128892c1.21263,-0.123725 1.25336,-0.498854 0.709217,-1.25245l-2.17173,-3.13204c-0.500068,-0.751776 -0.752383,-1.08435 -0.917451,-1.21141c-0.124335,0.127068 -0.461462,0.543237 -0.752081,1.00136l-1.75586,2.756c-0.8372,1.3397 -0.91958,1.67196 0.125851,1.83855l0.707698,0.128892c0.251098,0.20702 0.209451,0.916237 -0.0823827,1.04179c-1.04391,-0.0829897 -2.08691,-0.125549 -3.0904,-0.125549c-1.0427,0 -1.96349,0.0425595 -3.04814,0.125549c-0.336217,-0.166586 -0.379384,-0.876715 -0.0839049,-1.04179l0.959101,-0.168109c0.7536,-0.127373 1.33848,-0.459637 2.09056,-1.25489c0.876718,-0.920187 2.75661,-3.71571 3.71571,-4.887c0.376648,-0.45964 0.461767,-0.623796 0.125549,-1.08769l-3.75888,-5.3056c-0.626532,-0.919278 -1.33818,-1.58654 -2.50521,-1.79326l-0.668481,-0.127373c-0.253835,-0.207627 -0.210668,-0.919885 0.0835968,-1.04483c1.62758,0.0863361 2.58911,0.124942 3.63455,0.124942c1.00196,0 1.92063,-0.0386061 3.55064,-0.124942c0.29062,0.167502 0.29062,0.8372 0.0416474,1.04483l-0.626529,0.127373c-1.12903,0.206715 -1.0883,0.456294 -0.376651,1.46008l2.00545,2.92533c0.167499,0.249579 0.417383,0.584275 0.542932,0.710129c0.167499,-0.125854 1.5452,-2.21611 2.42192,-3.55156c0.710129,-1.08769 0.585797,-1.2944 -0.333783,-1.54398l-0.499766,-0.127373c-0.253835,-0.249274 -0.168719,-0.919885 0.164762,-1.04483c0.961532,0.0863361 2.0477,0.124942 3.05088,0.124942c0.959098,0 2.25441,-0.0386061 3.04844,-0.124942c0.333481,0.167502 0.333481,0.8372 0.085119,1.04483l-0.628051,0.127373c-1.00348,0.206715 -1.62758,0.332264 -2.08813,0.709217c-0.710434,0.585187 -2.25776,2.5049 -3.92608,4.76206c-0.502502,0.666657 -0.502502,0.792813 0.0392162,1.5455l3.88686,5.47401c0.960315,1.33514 1.63001,1.87686 2.75661,1.96167" style="fill:#100f0d;fill-rule:nonzero;"/></g></g></svg>