<?xml version="1.0" encoding="UTF-8"?>
<svg version="1.1" viewBox="0 0 477.8 271.4" xmlns="http://www.w3.org/2000/svg" xmlns:cc="http://creativecommons.org/ns#" xmlns:dc="http://purl.org/dc/elements/1.1/" xmlns:rdf="http://www.w3.org/1999/02/22-rdf-syntax-ns#" xmlns:xlink="http://www.w3.org/1999/xlink">
 <metadata>
  <rdf:RDF>
   <cc:Work rdf:about="">
    <dc:format>image/svg+xml</dc:format>
    <dc:type rdf:resource="http://purl.org/dc/dcmitype/StillImage"/>
    <dc:title/>
   </cc:Work>
  </rdf:RDF>
 </metadata>
 <defs>
  <linearGradient id="cvff" x1="993.7" x2="993.7" y1="1171" y2="2.82e-6" gradientTransform="matrix(.1635 0 0 .1078 -.0005006 -2.977e-7)" gradientUnits="userSpaceOnUse">
   <stop style="stop-color:#8e8e8e" offset="0"/>
   <stop style="stop-color:#b5b5b5" offset="1"/>
  </linearGradient>
  <linearGradient id="cvfa" x2="0" y2="1">
   <stop style="stop-color:#484848" offset="0"/>
   <stop offset="1"/>
  </linearGradient>
  <linearGradient id="cvfe" x1="1308" x2="1308" y1="1622" y2="2296" gradientTransform="matrix(.1853 0 0 .09506 -.0005006 -2.977e-7)" gradientUnits="userSpaceOnUse" xlink:href="#cvfa"/>
  <linearGradient id="cvfd" x1=".002838" x2=".002838" y1="1534" y2="2196" gradientTransform="matrix(.1764 0 0 .09984 -.0005006 -2.977e-7)" gradientUnits="userSpaceOnUse" xlink:href="#cvfa"/>
  <linearGradient id="cvfc" x1="1873" x2="1873" y1="1622" y2="2317" gradientTransform="matrix(.1861 0 0 .09466 -.0005006 -2.977e-7)" gradientUnits="userSpaceOnUse" xlink:href="#cvfa"/>
  <linearGradient id="cvfb" x1="745" x2="745" y1="1227" y2="2171" gradientTransform="matrix(.1409 0 0 .125 -.0005006 -2.977e-7)" gradientUnits="userSpaceOnUse" xlink:href="#cvfa"/>
 </defs>
 <g transform="matrix(.9932 0 0 .9996 1.537 .09946)">
  <path d="m341.6 18.58c-9.837-8.189-24.98-13.67-45.39-16.47l-15 47.69c-0.3238 1.751-0.8812 3.737-1.745 6.027-1.532 3.825-3.375 6.977-5.541 9.459-2.169 2.486-4.596 4.425-7.285 5.84-2.691 1.404-5.617 2.376-8.778 2.91-3.163 0.5322-6.433 0.6981-9.812 0.5017-3.383-0.1964-6.26-0.6569-8.628-1.383-2.37-0.7246-4.55-1.927-6.538-3.61-1.469-1.652-2.324-3.818-2.557-6.506-0.2349-2.686 0.4167-6.008 1.952-9.966 1.375-3.439 3.114-6.438 5.221-8.986 2.105-2.549 4.568-4.527 7.386-5.928 2.69-1.405 5.582-2.346 8.678-2.82 3.088-0.4711 6.522-0.5946 10.29-0.3756 3.122 0.1845 6.028 0.6437 8.725 1.391 1.279 0.3504 2.4 0.8136 3.374 1.371l11.51-36.62c-2.841-0.2681-5.749-0.503-8.771-0.6769-29.07-1.697-53.5 1.66-73.3 10.05-19.8 8.402-33 20.86-39.59 37.37-1.979 5.062-3.042 9.832-3.198 14.31-1.904 32.47 18.97 50.76 31.86 58.89 5.172 3.463 9.771 5.177 9.771 5.177l5.907-18.88 1.747-4.64c7.776 1.47 16.42 2.494 25.98 3.048 29.27 1.708 53.8-1.635 73.6-10.04 19.8-8.394 32.89-20.75 39.27-37.08 6.381-16.32 3.339-29.67-9.131-40.06" style="fill:url(#cvff);stroke-width:.1327"/>
  <path d="m357.7 185.1c-3.331 10.24-10.92 18.32-22.77 24.25-11.84 5.922-26.84 8.884-44.98 8.884-17.9 0-30.91-2.93-39.06-8.794-8.143-5.86-10.49-13.97-7.033-24.34l9.995-30.91h34.06l-9.625 30.73c-1.236 3.826-1.635 7.006-1.202 9.533 0.4313 2.531 1.387 4.535 2.869 6.016 1.85 1.477 3.915 2.495 6.201 3.051 2.281 0.5562 5.026 0.8352 8.236 0.8352 3.209 0 6.293-0.3386 9.256-1.021 2.961-0.6754 5.674-1.756 8.145-3.235 2.466-1.481 4.657-3.454 6.571-5.924 1.911-2.467 3.485-5.556 4.721-9.256l9.995-30.73h34.06l-9.44 30.91" style="fill:url(#cvfe);stroke-width:.1327"/>
  <path d="m80.68 186.5c-1.235 3.951-2.747 7.033-4.535 9.255-1.791 2.222-4.043 4.135-6.756 5.737-2.346 1.481-4.997 2.499-7.958 3.055-2.962 0.5564-5.923 0.8321-8.886 0.8321-3.579 0-6.635-0.3064-9.162-0.9249-2.531-0.6174-4.535-1.667-6.016-3.147-1.605-1.481-2.529-3.485-2.777-6.016-0.2488-2.527 0.185-5.46 1.297-8.792 1.233-3.822 2.868-7.001 4.906-9.533 2.035-2.527 4.286-4.535 6.756-6.016 2.838-1.48 5.582-2.498 8.237-3.054 2.653-0.5562 5.582-0.832 8.793-0.832 3.206 0 6.109 0.3411 8.699 1.018 2.592 0.6796 4.627 1.758 6.109 3.239 1.48 1.482 2.374 3.458 2.683 5.923 0.3063 2.47-0.1555 5.555-1.388 9.256zm34.61-0.1861c3.331-10.24 0.9856-18.32-7.035-24.25-8.022-5.923-21.1-8.885-39.24-8.885-17.89 0-32.76 2.933-44.61 8.792-11.85 5.862-19.5 13.98-22.95 24.34-3.331 10.25-0.9575 18.3 7.126 24.16 8.082 5.863 21.13 8.794 39.15 8.794 18.02 0 32.95-2.93 44.8-8.794 11.85-5.86 19.43-13.91 22.77-24.16" style="fill:url(#cvfd);stroke-width:.1327"/>
  <path d="m411.6 168.3c3.885-0.928 12-1.388 24.34-1.388 6.416 0 12.62 0.6465 18.6 1.944 5.982 1.294 12 2.932 18.05 4.905l5.184-15.73c-3.581-0.9877-8.792-1.974-15.64-2.961-6.847-0.987-14.16-1.481-21.93-1.481-23.32 0-40.35 2.006-51.09 6.016-10.74 4.011-17.09 9.039-19.07 15.08-1.48 4.567-0.4619 8.422 3.055 11.57 3.518 3.147 9.718 5.462 18.6 6.94 3.333 0.6195 8.792 1.112 16.38 1.484 7.589 0.3702 12.56 0.7378 14.9 1.109 4.933 0.4952 8.235 1.11 9.903 1.851 1.664 0.7408 2.25 1.85 1.757 3.332-0.6185 1.729-2.622 3.025-6.016 3.886-3.396 0.8653-8.361 1.296-14.9 1.296-1.022 0-2.008-4e-3 -2.976-9e-3 -2.45-0.1327-5.119-0.3614-7.686-0.6304-2.734-0.2925-5.465-0.6455-8.177-1.056-5.428-0.8227-10.79-1.883-16-3.238-5.204-1.356-10.26-3.007-14.94-5.06-0.6291-0.2763-1.236-0.5749-1.849-0.8684-3.286 5.28-7.837 9.889-13.63 13.8 2.998 1.44 6.024 2.623 9.034 3.639 5.999 1.999 11.99 3.344 17.95 4.335 5.964 0.9834 11.9 1.596 17.83 1.953 2.961 0.1752 5.919 0.284 8.88 0.3291 2.611 0.0348 5.152 0.0255 7.833-0.0596 16.21-0.0969 29.62-2.032 40.21-5.821 10.86-3.888 17.34-9.038 19.44-15.46 1.481-4.443 0.5853-8.145-2.684-11.11-3.273-2.961-9.042-5.119-17.31-6.479-3.826-0.4925-7.655-0.9529-11.48-1.387-3.828-0.4313-7.343-0.8337-10.55-1.204-12.71-0.8627-19.81-1.666-21.29-2.407-1.481-0.7403-1.975-1.85-1.481-3.332 0.6171-1.603 2.869-2.869 6.758-3.793" style="fill:url(#cvfc);stroke-width:.1327"/>
  <path d="m229.4 162.2c-8.084-5.859-21.13-8.792-39.15-8.792-18.02 0-32.95 2.933-44.79 8.792-11.84 5.862-19.11 13.82-22.44 24.06l-16.98 52.47c-6.982 23.4 23.26 32.66 23.26 32.66l10.93-35.46c0.7857-2.632 1.582-5.261 2.364-7.896l2.238-7.34c0.8003-2.432 1.601-4.86 2.454-7.274l7.926-21.65 1.897-4.934c0.0677-0.2287 0.1314-0.45 0.2057-0.6812 1.11-3.33 2.592-6.262 4.442-8.791 1.851-2.528 4.073-4.535 6.664-6.017 2.467-1.48 5.152-2.527 8.052-3.147 2.897-0.6159 6.138-0.9238 9.718-0.9238 2.961 0 5.74 0.2763 8.331 0.8321 2.591 0.5562 4.563 1.574 5.923 3.054 1.727 1.605 2.745 3.517 3.054 5.737 0.3052 2.223-0.1566 5.307-1.388 9.255-1.236 3.703-2.81 6.79-4.721 9.254-1.914 2.472-4.102 4.443-6.571 5.924-2.47 1.48-5.181 2.563-8.143 3.24-2.961 0.6782-6.049 1.017-9.254 1.017-3.212 0-5.955-0.2763-8.238-0.832-2.284-0.5562-4.414-1.573-6.388-3.055-0.1486-0.1488-0.2654-0.3281-0.4035-0.4858l-4.876 14.14c-0.2734 0.815-0.5348 1.63-0.7976 2.445 4.617 0.9394 9.963 1.5 16.07 1.667 18.14 0 33.13-2.961 44.98-8.884 11.84-5.924 19.43-14 22.77-24.25 3.333-10.24 0.9529-18.29-7.127-24.15" style="fill:url(#cvfb);stroke-width:.1327"/>
 </g>
</svg>