<svg class="img-fluid" id="outputsvg" xmlns="http://www.w3.org/2000/svg" style="transform: matrix(1, 0, 0, 1, 0, 0); transform-origin: 50% 50%; cursor: move; max-height: none; transition: transform 200ms ease-in-out;" width="300" height="300" viewBox="0 0 3000 3000"><g id="l2bZj96TZRqbiP5WxJFoYZ1" fill="rgb(250,250,250)" style="transform: none;"><g style="transform: none;"><path id="pluF6eEO2" d="M0 1500 l0 -1500 1500 0 1500 0 0 1500 0 1500 -1500 0 -1500 0 0 -1500z"></path></g></g><g id="l2aUGXF2054KhkTCgnSNWry" fill="rgb(10,8,7)" style="transform: none;"><g style="transform: none;"><path id="psDfoonL3" d="M640 2987 c0 -16 -95 -37 -164 -37 -43 0 -69 -8 -188 -57 -20 -9 -49 -28 -64 -44 -23 -24 -26 -32 -17 -52 10 -22 8 -24 -34 -35 -25 -7 -61 -28 -84 -50 -40 -37 -40 -37 -14 -89 54 -108 176 -182 337 -206 43 -6 78 -15 78 -19 0 -4 15 -8 33 -8 19 0 36 -3 40 -6 9 -9 -64 -103 -85 -110 -26 -8 -103 -98 -127 -149 -12 -26 -29 -74 -38 -108 -21 -85 -13 -281 16 -392 22 -81 115 -279 235 -500 127 -232 178 -407 159 -540 -5 -39 -22 -98 -37 -132 -27 -58 -29 -61 -72 -67 -48 -6 -66 -2 -106 26 -35 25 -35 34 1 41 46 9 87 51 100 102 10 40 9 51 -10 94 -18 43 -28 52 -72 72 -76 33 -140 35 -212 8 -62 -23 -120 -73 -131 -112 -3 -13 -28 -35 -57 -52 -34 -20 -61 -46 -80 -77 -26 -41 -30 -58 -30 -125 -1 -63 3 -87 23 -128 66 -136 202 -212 400 -222 124 -7 208 11 282 58 49 32 168 152 168 170 0 6 4 8 9 5 5 -3 36 23 69 58 128 138 193 356 162 546 -25 157 -62 246 -168 408 -141 214 -222 426 -222 576 0 140 12 152 100 105 78 -42 89 -55 101 -130 34 -214 129 -398 267 -513 26 -21 81 -54 122 -73 153 -68 160 -73 247 -189 46 -60 83 -114 83 -120 0 -7 -9 -14 -20 -17 -13 -3 -23 -20 -31 -51 -10 -41 -15 -46 -46 -52 -57 -11 -90 -47 -104 -112 -29 -143 28 -293 139 -363 60 -38 112 -39 164 -3 21 15 42 24 46 20 4 -4 32 -58 62 -119 44 -89 64 -118 99 -144 24 -19 46 -32 48 -29 2 2 -5 22 -16 45 -21 41 -27 71 -13 71 4 0 34 -24 67 -54 33 -29 75 -61 94 -70 34 -18 34 -18 27 7 -3 14 -8 32 -12 40 -4 11 5 16 33 22 74 14 141 64 193 145 27 42 35 48 50 40 61 -32 140 5 166 78 16 44 22 50 64 65 43 15 50 22 75 78 23 52 27 71 22 118 -5 63 -30 123 -65 163 -22 24 -25 37 -27 120 -2 51 -8 106 -14 122 -9 23 -9 36 0 58 6 15 15 25 20 22 15 -9 76 45 108 95 56 87 76 170 76 318 0 133 0 133 36 163 21 16 45 50 55 75 11 25 25 45 32 45 7 0 12 13 12 30 0 20 -5 30 -15 30 -8 0 -15 7 -15 15 0 23 -55 127 -77 147 -54 49 -142 60 -215 28 -43 -19 -118 -89 -118 -109 0 -10 -117 -91 -132 -91 -23 0 -148 -92 -198 -146 -66 -70 -149 -139 -178 -148 -23 -8 -92 -86 -92 -104 0 -6 -9 -14 -21 -17 -11 -4 -45 -32 -75 -62 -30 -31 -57 -53 -60 -50 -13 13 -34 120 -40 209 -7 97 -7 97 53 186 33 49 68 111 79 138 21 58 34 80 94 159 25 33 53 80 64 105 10 25 33 74 51 110 52 103 69 172 69 285 1 163 -47 305 -120 354 -77 53 -151 73 -299 82 -77 4 -152 8 -167 8 -18 1 -28 6 -28 16 0 9 -9 15 -25 15 -16 0 -25 -6 -25 -15 0 -13 -38 -15 -285 -15 -247 0 -285 2 -285 15 0 13 -23 15 -150 15 -116 0 -150 -3 -150 -13z m1119 -795 c33 -68 33 -68 -44 -145 -43 -42 -82 -77 -87 -77 -7 0 -7 30 -2 83 5 45 9 106 8 134 -1 56 -2 55 87 72 3 1 20 -30 38 -67z m-73 -962 c21 -27 44 -50 52 -50 10 0 11 -10 6 -37 -3 -21 -10 -42 -14 -46 -10 -12 -49 45 -76 112 -40 97 -31 103 32 21z m587 -380 c22 -24 27 -40 27 -80 0 -50 -14 -100 -27 -100 -5 0 -14 13 -21 30 -27 59 -77 47 -88 -21 -6 -33 -9 -37 -21 -27 -40 32 -56 127 -32 181 28 63 112 72 162 17z m217 -40 c8 -35 9 -58 0 -88 -11 -41 -11 -41 -30 -22 -35 35 -74 18 -85 -36 -6 -37 -6 -37 -27 -16 -19 19 -20 25 -10 60 7 22 12 55 12 75 0 47 9 67 29 67 9 0 30 9 46 20 27 18 31 18 42 4 6 -9 17 -37 23 -64z"></path></g></g><g id="l1UUGwuGgNpE5yjsBfcjdKp" fill="rgb(246,185,207)" style="transform: none;"><g style="transform: none;"><path id="p12jSXYeoN" d="M530 2791 c-81 -19 -100 -35 -100 -85 0 -38 72 -93 145 -110 27 -7 28 -9 11 -18 -10 -6 -40 -8 -67 -6 -78 8 -159 84 -159 151 0 27 -1 28 -47 25 -41 -3 -48 -6 -51 -26 -5 -30 39 -103 80 -134 18 -14 58 -38 88 -54 55 -29 55 -29 8 -32 -33 -2 -59 3 -88 18 -48 24 -119 95 -146 145 -21 39 -43 44 -67 17 -28 -30 -20 -57 31 -107 93 -93 211 -131 382 -122 111 6 140 12 140 31 0 35 66 142 128 208 l71 74 -102 13 c-144 18 -217 21 -257 12z"></path><path id="pqHCfHzOK" d="M1085 2770 c4 -6 32 -24 64 -40 149 -75 172 -131 135 -330 -9 -47 -18 -97 -21 -111 -4 -24 1 -29 62 -58 75 -35 88 -33 127 21 34 48 32 135 -5 206 -15 29 -25 57 -22 61 3 5 27 12 54 16 77 10 86 21 71 81 -10 41 -10 56 4 94 8 24 14 46 12 48 -8 7 -241 22 -359 22 -85 0 -126 -3 -122 -10z"></path><path id="pWKggG39D" d="M942 2740 c-89 -55 -178 -185 -189 -280 -15 -125 99 -101 169 37 48 94 62 93 83 -4 25 -112 66 -187 123 -225 15 -10 32 -18 38 -18 19 0 54 95 66 178 15 107 0 181 -47 219 -32 27 -188 113 -203 113 -4 0 -22 -9 -40 -20z"></path><path id="plWXBD1bz" d="M1637 2740 c-9 -6 -24 -24 -32 -40 -19 -36 -6 -69 35 -93 35 -21 119 -22 146 -2 27 20 31 19 43 -16 14 -42 13 -147 -2 -182 -12 -28 -12 -28 -82 8 -83 41 -94 42 -123 12 -17 -18 -22 -34 -21 -70 3 -66 17 -75 85 -52 48 16 57 17 65 4 5 -8 9 -20 9 -28 0 -25 61 -128 94 -161 34 -32 34 -32 55 -1 47 66 53 103 46 285 -4 102 -12 182 -19 201 -18 42 -89 101 -145 120 -64 21 -133 28 -154 15z"></path><path id="p14MtXldKK" d="M966 2325 c-3 -30 -4 -74 0 -98 8 -55 43 -165 55 -173 16 -9 39 16 70 78 29 58 29 58 -12 95 -22 20 -54 63 -70 95 -16 32 -31 58 -33 58 -2 0 -6 -25 -10 -55z"></path><path id="p18HtYYzh3" d="M2555 1847 c-34 -19 -85 -77 -85 -97 0 -11 77 -33 92 -26 7 3 21 11 30 18 13 9 22 9 42 0 29 -13 35 -48 14 -82 -10 -15 -9 -22 5 -38 9 -10 17 -23 17 -29 0 -6 7 -17 16 -24 15 -12 21 -8 55 30 127 142 -22 341 -186 248z"></path><path id="pRh9Gn1sm" d="M2291 1654 c-136 -68 -276 -238 -327 -397 -21 -65 -27 -108 -31 -212 -2 -71 -1 -155 4 -185 8 -49 11 -55 31 -52 23 3 27 -5 14 -24 -23 -34 -109 -46 -136 -18 -16 16 -22 64 -8 64 4 0 16 -7 26 -15 11 -8 23 -15 28 -15 15 0 9 107 -6 119 -38 31 -96 -58 -96 -146 0 -44 4 -55 28 -73 23 -19 36 -21 92 -17 36 3 73 8 83 12 16 7 17 3 10 -36 -4 -24 -7 -84 -8 -134 0 -74 4 -97 22 -131 26 -48 39 -60 75 -69 39 -10 81 34 102 107 9 32 21 60 26 63 6 3 10 5 10 3 0 -23 23 -130 31 -151 10 -22 53 -57 72 -57 2 0 21 37 42 82 47 99 61 200 28 192 -12 -3 -39 8 -71 30 -51 36 -51 36 -76 11 -73 -72 -216 27 -216 149 0 98 52 181 119 192 31 5 39 11 47 37 15 49 55 72 127 72 48 0 71 -6 100 -24 39 -24 39 -24 80 6 122 85 196 299 154 443 -22 75 -68 144 -118 177 -34 22 -56 28 -113 31 -65 3 -77 1 -145 -34z"></path><path id="ph3rm4r7A" d="M1895 1319 c-69 -61 -116 -201 -101 -302 7 -46 8 -47 45 -47 38 0 38 0 44 88 3 48 17 131 32 186 14 54 24 101 21 103 -2 2 -20 -10 -41 -28z"></path></g></g><g id="l1iQoRPHTmjBuUs7Fu66k9O" fill="rgb(187,187,186)" style="transform: none;"><g style="transform: none;"><path id="pfzPxrPLf" d="M640 2987 c0 -16 -95 -37 -164 -37 -43 0 -69 -8 -188 -57 -53 -22 -92 -66 -83 -93 5 -15 12 -19 23 -15 10 4 51 11 92 16 41 4 112 15 158 23 71 13 155 14 610 6 634 -12 701 -18 793 -76 74 -46 110 -105 133 -216 32 -155 17 -296 -44 -423 -21 -44 -43 -95 -49 -114 -6 -18 -40 -72 -75 -120 -36 -48 -74 -109 -86 -136 -28 -69 -57 -120 -103 -186 -39 -56 -39 -56 -35 -155 3 -99 3 -99 53 -161 28 -35 55 -63 60 -63 6 0 24 31 41 70 31 67 31 71 18 111 -17 49 -33 162 -34 234 0 45 6 59 54 128 29 42 63 101 75 130 30 73 48 103 100 172 25 33 54 80 65 105 10 25 33 74 51 110 52 103 69 172 69 285 1 163 -47 305 -120 354 -77 53 -151 73 -299 82 -77 4 -152 8 -167 8 -18 1 -28 6 -28 16 0 9 -9 15 -25 15 -16 0 -25 -6 -25 -15 0 -13 -38 -15 -285 -15 -247 0 -285 2 -285 15 0 13 -23 15 -150 15 -116 0 -150 -3 -150 -13z"></path><path id="pLDXAV57h" d="M1710 2539 c-14 -6 -41 -8 -60 -5 -46 8 -164 -48 -155 -73 4 -9 13 -43 22 -76 20 -76 6 -149 -37 -195 -30 -32 -30 -32 -9 -73 22 -43 23 -92 3 -259 -4 -33 -3 -58 2 -57 5 0 38 35 74 77 64 76 64 76 77 186 17 139 12 170 -27 186 -63 26 -75 177 -18 230 26 24 87 26 148 5 51 -18 60 -14 60 31 0 31 -3 34 -27 33 -16 0 -39 -5 -53 -10z"></path><path id="pKlDEUdor" d="M490 2400 c0 -5 15 -10 33 -10 19 0 37 -3 40 -6 4 -4 -8 -25 -25 -47 -32 -40 -32 -40 -4 -33 16 4 42 10 58 13 26 5 78 62 78 85 0 5 -40 8 -90 8 -53 0 -90 -4 -90 -10z"></path><path id="pYjq61oDT" d="M2677 2061 c-45 -21 -93 -65 -113 -104 -15 -27 -15 -27 24 -21 93 15 189 -50 225 -151 35 -101 17 -177 -58 -243 -42 -37 -42 -37 -37 -159 4 -105 1 -131 -17 -193 -12 -40 -20 -74 -17 -77 10 -10 76 50 105 96 56 87 76 170 76 318 0 133 0 133 36 163 21 16 45 50 55 75 11 25 25 45 32 45 7 0 12 13 12 30 0 20 -5 30 -15 30 -8 0 -15 7 -15 15 0 23 -55 127 -77 147 -53 48 -148 60 -216 29z"></path><path id="pjyVOsJsC" d="M664 1949 c-41 -66 -56 -108 -65 -184 -20 -181 43 -371 216 -645 86 -136 114 -191 146 -285 21 -61 24 -89 24 -210 0 -153 -10 -210 -57 -314 -16 -35 -27 -66 -25 -68 2 -2 31 25 64 61 129 138 194 356 163 546 -25 157 -62 246 -168 408 -88 134 -156 274 -192 395 -28 95 -31 119 -28 203 2 70 7 97 18 104 19 12 13 17 -32 25 -35 7 -38 5 -64 -36z"></path><path id="pljmfsErr" d="M2350 1816 c-57 -38 -182 -155 -155 -145 6 2 37 18 70 35 33 17 77 37 98 43 20 7 37 18 37 25 0 7 11 30 25 50 21 31 22 36 7 36 -9 -1 -46 -20 -82 -44z"></path><path id="pvzujgU9o" d="M2602 1016 c-23 -24 -58 -51 -76 -60 -33 -16 -33 -16 -15 -70 12 -33 19 -86 20 -135 1 -72 4 -83 24 -98 33 -26 78 -147 72 -195 -6 -43 -3 -44 52 -22 33 13 43 25 66 76 23 51 27 70 22 117 -6 66 -36 137 -71 170 -21 20 -24 30 -20 70 6 49 -10 169 -24 183 -4 4 -27 -12 -50 -36z"></path><path id="pxSo2K7gK" d="M1643 900 c-14 -6 -26 -24 -33 -50 -6 -23 -10 -43 -8 -45 2 -1 31 -5 66 -8 52 -6 62 -4 62 9 0 13 -56 105 -63 103 -1 0 -12 -4 -24 -9z"></path><path id="picFAObiu" d="M305 725 c-33 -14 -61 -25 -62 -25 -5 0 -63 -83 -63 -90 0 -4 33 -7 73 -6 90 1 176 -34 201 -83 21 -40 20 -109 -2 -150 -19 -36 -72 -71 -107 -71 -18 0 -17 -2 7 -27 40 -40 122 -44 180 -10 45 26 74 54 102 99 18 27 18 27 -36 25 -41 -2 -60 3 -85 21 -40 29 -41 38 -4 45 46 9 87 51 100 102 10 40 9 51 -10 94 -18 43 -28 52 -72 72 -78 34 -149 35 -222 4z"></path></g></g><g id="l3JMo4FNd4aTDkUNv7leJjX" fill="rgb(146,74,1)" style="transform: none;"><g style="transform: none;"><path id="pMRfMyxMl" d="M856 2354 c-48 -31 -64 -36 -97 -31 -36 5 -41 2 -54 -24 -20 -37 -29 -108 -21 -153 10 -54 52 -95 141 -137 44 -21 88 -44 97 -51 15 -11 21 -9 38 8 21 20 21 20 -11 115 -29 82 -33 107 -33 201 -1 60 -1 108 -1 108 0 0 -27 -16 -59 -36z"></path><path id="p19TJbGtVJ" d="M525 2206 c-27 -18 -60 -44 -72 -57 -29 -33 -70 -115 -82 -169 -38 -163 21 -415 157 -670 132 -251 188 -367 217 -455 27 -80 30 -103 29 -205 0 -99 -4 -124 -27 -182 -38 -97 -68 -145 -134 -210 -65 -64 -113 -88 -175 -88 -84 1 -171 64 -198 145 -18 55 -9 65 55 65 85 0 125 27 125 84 0 61 -184 100 -268 57 -65 -33 -85 -72 -78 -150 10 -112 69 -202 166 -251 80 -40 150 -53 244 -47 201 12 348 135 422 351 19 55 24 90 24 172 0 191 -74 392 -227 617 -91 134 -139 239 -164 361 -24 116 -24 181 0 306 16 77 27 110 52 145 25 35 30 49 24 72 -4 15 -10 52 -13 82 -4 30 -11 56 -17 57 -5 2 -32 -12 -60 -30z"></path><path id="pLPlkm40y" d="M1250 2218 c0 -2 7 -25 15 -52 8 -27 15 -83 15 -125 0 -122 56 -385 101 -473 27 -52 19 -58 -16 -12 -87 114 -145 318 -145 510 0 59 -4 85 -14 93 -24 20 -53 -4 -70 -57 -11 -31 -33 -64 -62 -93 -90 -87 -99 -123 -69 -252 39 -167 109 -302 203 -388 44 -41 84 -65 168 -101 155 -68 161 -73 312 -295 45 -65 58 -74 68 -48 10 24 -12 73 -64 144 -85 115 -104 167 -112 311 -4 69 -11 134 -15 145 -5 11 -25 39 -46 62 -84 92 -115 197 -104 354 7 121 -3 156 -67 215 -48 45 -99 76 -98 62z"></path><path id="p1GKBfWVj6" d="M1730 1953 c-112 -76 -153 -112 -191 -172 -36 -56 -36 -88 -1 -137 30 -40 60 -70 66 -63 1 2 24 45 51 94 62 118 128 218 181 279 78 90 27 90 -106 -1z"></path><path id="p16Tm8BPnQ" d="M1643 740 c-22 -5 -60 -18 -83 -30 -43 -22 -43 -22 -38 -108 9 -144 57 -228 146 -252 53 -14 75 -2 130 70 20 27 40 49 43 49 4 1 9 -19 12 -44 8 -57 47 -133 89 -175 77 -77 232 -114 301 -71 49 30 53 48 17 84 -16 17 -30 33 -30 36 0 3 -4 12 -9 20 -8 12 -15 9 -41 -12 -56 -48 -143 -32 -193 35 -35 48 -48 96 -49 186 0 80 0 80 -42 88 -22 4 -46 8 -53 8 -7 1 -34 -30 -60 -68 -61 -88 -88 -108 -139 -104 -39 3 -39 3 6 24 41 19 78 50 69 58 -2 1 -21 13 -42 25 -40 24 -74 67 -63 78 4 4 30 -6 60 -22 73 -39 90 -32 84 40 -5 57 -28 96 -57 94 -9 -1 -35 -5 -58 -9z"></path><path id="phufXVWNY" d="M2514 570 c4 -30 9 -74 12 -98 5 -36 4 -41 -10 -36 -9 4 -24 20 -32 36 -19 36 -24 32 -35 -27 -15 -81 20 -122 79 -91 38 20 52 55 52 132 0 60 -2 67 -36 102 -35 37 -35 37 -30 -18z"></path></g></g><g id="l7f52T4ruWK00XANHTiEkF5" fill="rgb(242,135,102)" style="transform: none;"><g style="transform: none;"><path id="pIHEr8NBX" d="M2273 978 c-50 -24 -10 -88 55 -88 74 0 112 41 76 81 -19 22 -93 25 -131 7z"></path></g></g></svg>