<?xml version="1.0" encoding="UTF-8" standalone="no"?>
<!-- Created with Inkscape (http://www.inkscape.org/) -->

<svg
   xmlns:dc="http://purl.org/dc/elements/1.1/"
   xmlns:cc="http://creativecommons.org/ns#"
   xmlns:rdf="http://www.w3.org/1999/02/22-rdf-syntax-ns#"
   xmlns:svg="http://www.w3.org/2000/svg"
   xmlns="http://www.w3.org/2000/svg"
   xmlns:sodipodi="http://sodipodi.sourceforge.net/DTD/sodipodi-0.dtd"
   xmlns:inkscape="http://www.inkscape.org/namespaces/inkscape"
   width="500"
   height="253.76521"
   id="svg4067"
   version="1.1"
   inkscape:version="0.48.1 r9760"
   sodipodi:docname="New document 6">
  <defs
     id="defs4069" />
  <sodipodi:namedview
     inkscape:document-units="in"
     pagecolor="#ffffff"
     bordercolor="#666666"
     borderopacity="1.0"
     inkscape:pageopacity="0.0"
     inkscape:pageshadow="2"
     inkscape:zoom="0.36"
     inkscape:cx="200.23278"
     inkscape:cy="-77.97252"
     inkscape:current-layer="layer1"
     id="namedview4071"
     showgrid="false"
     units="in"
     fit-margin-top="0"
     fit-margin-left="0"
     fit-margin-right="0"
     fit-margin-bottom="0"
     inkscape:window-width="1368"
     inkscape:window-height="934"
     inkscape:window-x="0"
     inkscape:window-y="0"
     inkscape:window-maximized="0" />
  <metadata
     id="metadata4073">
    <rdf:RDF>
      <cc:Work
         rdf:about="">
        <dc:format>image/svg+xml</dc:format>
        <dc:type
           rdf:resource="http://purl.org/dc/dcmitype/StillImage" />
        <dc:title></dc:title>
      </cc:Work>
    </rdf:RDF>
  </metadata>
  <g
     inkscape:label="Layer 1"
     inkscape:groupmode="layer"
     id="layer1"
     transform="translate(-139.76722,-158.26227)">
    <path
       inkscape:connector-curvature="0"
       d="m 145.28447,378.31696 0,-15.39632 9.31097,0 c 10.19681,0 13.86536,5.98906 13.86536,15.90664 0,15.30966 -10.20644,16.33993 -13.95201,16.33993 l -9.22432,0 0,-16.85025 -5.51725,0 0,21.51055 14.2505,0 c 13.8461,0 19.9507,-7.85703 19.9507,-21.75127 0,-13.39355 -7.14451,-19.80627 -19.9507,-19.80627 l -14.2505,0 0,20.04699 5.51725,0"
       style="fill:#110f0e;fill-opacity:1;fill-rule:nonzero;stroke:none"
       id="path3050" />
    <path
       inkscape:connector-curvature="0"
       d="m 498.1288,378.31696 0,-15.39632 9.29171,0 c 10.17755,0 13.84609,5.98906 13.84609,15.90664 0,15.30966 -10.17755,16.33993 -13.97126,16.33993 l -9.16654,0 0,-16.85025 -5.54614,0 0,21.51055 14.26013,0 c 13.83646,0 19.9507,-7.85703 19.9507,-21.75127 0,-13.39355 -7.15414,-19.80627 -19.9507,-19.80627 l -14.26013,0 0,20.04699 5.54614,0"
       style="fill:#110f0e;fill-opacity:1;fill-rule:nonzero;stroke:none"
       id="path3052" />
    <path
       inkscape:connector-curvature="0"
       d="m 179.0235,399.82751 0,-30.08974 4.95879,0 0,30.08974 -4.95879,0 z"
       style="fill:#110f0e;fill-opacity:1;fill-rule:nonzero;stroke:none"
       id="path3054" />
    <path
       inkscape:connector-curvature="0"
       d="m 179.0235,364.34569 0,-6.07572 4.95879,0 0,6.07572 -4.95879,0 z"
       style="fill:#110f0e;fill-opacity:1;fill-rule:nonzero;stroke:none"
       id="path3056" />
    <path
       inkscape:connector-curvature="0"
       d="m 190.04838,369.73777 4.65067,0 0,6.34533 0.12479,0 c 2.37829,-4.83362 5.7002,-7.22154 11.04413,-7.0386 l 0,5.2284 c -7.95332,0 -10.87082,4.55438 -10.87082,12.16107 l 0,13.39354 -4.94916,0 0,-30.08974"
       style="fill:#110f0e;fill-opacity:1;fill-rule:nonzero;stroke:none"
       id="path3058" />
    <path
       inkscape:connector-curvature="0"
       d="m 220.17663,381.88921 -9.04136,0 c 0.34663,-4.57364 3.43745,-8.4829 8.60807,-8.4829 4.89139,0 8.44439,3.78409 8.67547,8.4829 l -8.24218,0 0,4.36181 13.47058,0 c 0.2981,-7.26005 -2.95602,-17.20652 -13.61501,-17.20652 -8.20366,0 -14.14458,6.62456 -14.14458,15.64667 0.29887,9.20505 4.85287,15.82961 14.44307,15.82961 6.74973,0 11.52558,-3.61077 12.85434,-10.26421 l -4.88176,0 c -0.86658,3.91888 -3.72631,5.89277 -7.79926,5.89277 -6.57641,0 -9.54206,-4.6603 -9.36874,-9.89832 l 9.04136,0 0,-4.36181"
       style="fill:#110f0e;fill-opacity:1;fill-rule:nonzero;stroke:none"
       id="path3060" />
    <path
       inkscape:connector-curvature="0"
       d="m 383.19081,381.88921 -9.04137,0 c 0.33739,-4.57364 3.42782,-8.4829 8.60807,-8.4829 4.87213,0 8.42513,3.78409 8.65622,8.4829 l -8.22292,0 0,4.36181 13.46094,0 c 0.29811,-7.26005 -2.96564,-17.20652 -13.62463,-17.20652 -8.18441,0 -14.10607,6.62456 -14.10607,15.64667 0.2696,9.20505 4.81436,15.82961 14.40456,15.82961 6.76899,0 11.52557,-3.61077 12.88322,-10.26421 l -4.91064,0 c -0.86659,3.91888 -3.70706,5.89277 -7.78964,5.89277 -6.55715,0 -9.54205,-4.6603 -9.35911,-9.89832 l 9.04137,0 0,-4.36181"
       style="fill:#110f0e;fill-opacity:1;fill-rule:nonzero;stroke:none"
       id="path3062" />
    <path
       inkscape:connector-curvature="0"
       d="m 259.16331,379.38575 c -0.75104,-3.78409 -3.36043,-5.97944 -7.443,-5.97944 -7.16377,0 -9.34949,5.66169 -9.34949,11.75667 0,5.50762 2.48421,10.98636 8.78139,10.98636 4.73733,0 7.59706,-2.7827 8.24219,-7.34671 l 5.07433,0 c -1.1073,7.34671 -5.71946,11.71815 -13.26837,11.71815 -9.20505,0 -14.07719,-6.38384 -14.07719,-15.3578 0,-9.03174 4.6603,-16.11848 14.20236,-16.11848 6.8075,0 12.27662,3.21599 12.96988,10.34125 l -5.1321,0"
       style="fill:#110f0e;fill-opacity:1;fill-rule:nonzero;stroke:none"
       id="path3064" />
    <path
       inkscape:connector-curvature="0"
       d="m 275.67656,369.73777 5.99869,0 0,4.36181 -5.99869,0 0,18.67008 c 0,2.30126 0.63549,2.6479 3.72631,2.6479 l 2.27238,0 0,4.40995 -3.78409,0 c -5.13211,0 -7.16376,-1.04953 -7.16376,-6.59567 l 0,-19.13226 -5.11285,0 0,-4.36181 5.11285,0 0,-9.02211 4.94916,0 0,9.02211"
       style="fill:#110f0e;fill-opacity:1;fill-rule:nonzero;stroke:none"
       id="path3066" />
    <path
       inkscape:connector-curvature="0"
       d="m 324.01271,370.43104 c -0.62625,-5.95055 -4.59289,-8.49253 -10.29309,-8.49253 -4.64105,0 -9.31097,1.69465 -9.31097,7.10599 0,5.11285 6.64381,5.88315 13.31651,7.40449 6.62456,1.49245 13.278,3.8226 13.278,11.96849 0,8.84879 -8.66584,12.3729 -16.24364,12.3729 -9.29171,0 -17.15838,-4.51587 -17.15838,-14.64528 l 5.2284,0 c 0,6.9712 5.81574,10.00424 12.11292,10.00424 5.00694,0 10.53382,-1.56948 10.53382,-7.54891 0,-5.70983 -6.64382,-6.71122 -13.278,-8.15553 -6.62456,-1.45393 -13.31652,-3.37005 -13.31652,-10.98636 0,-8.44439 7.50077,-12.19959 15.06894,-12.19959 8.49253,0 14.94377,4.05369 15.30004,13.17209 l -5.23803,0"
       style="fill:#110f0e;fill-opacity:1;fill-rule:nonzero;stroke:none"
       id="path3068" />
    <path
       inkscape:connector-curvature="0"
       d="m 342.54799,369.73777 6.01795,0 0,4.36181 -6.01795,0 0,18.67008 c 0,2.30126 0.68403,2.6479 3.73595,2.6479 l 2.282,0 0,4.40995 -3.77446,0 c -5.1321,0 -7.16376,-1.04953 -7.16376,-6.59567 l 0,-19.13226 -5.12248,0 0,-4.36181 5.12248,0 0,-9.02211 4.92027,0 0,9.02211"
       style="fill:#110f0e;fill-opacity:1;fill-rule:nonzero;stroke:none"
       id="path3070" />
    <path
       inkscape:connector-curvature="0"
       d="m 352.68703,369.73777 4.6603,0 0,6.34533 0.0963,0 c 2.39755,-4.83362 5.72908,-7.22154 11.08265,-7.0386 l 0,5.2284 c -7.98221,0 -10.89008,4.55438 -10.89008,12.16107 l 0,13.39354 -4.94916,0 0,-30.08974"
       style="fill:#110f0e;fill-opacity:1;fill-rule:nonzero;stroke:none"
       id="path3072" />
    <path
       inkscape:connector-curvature="0"
       d="m 420.01102,386.15473 0,-1.85834 c -1.91612,1.39616 -5.64243,1.44431 -8.96434,2.0124 -3.2545,0.607 -6.05646,1.75243 -6.05646,5.42097 0,3.28339 2.80196,4.41958 5.82537,4.41958 6.51865,0 9.19543,-4.08257 9.19543,-6.78824 l 0,-3.20637 4.9299,0 0,6.61493 c 0,2.33015 0,3.37968 1.57911,3.37968 0.40441,0 0.88584,-0.0539 1.52134,-0.2696 l 0,3.8226 c -0.86659,0.50993 -1.99315,0.81844 -3.553,0.81844 -2.58049,0 -4.18849,-1.38654 -4.18849,-4.64104 -2.73455,3.1871 -6.4031,4.64104 -10.57233,4.64104 -5.47874,0 -9.96572,-2.43607 -9.96572,-8.45401 0,-6.76899 5.05507,-8.26144 10.18718,-9.24357 5.45948,-1.04953 10.11978,-0.69327 10.11978,-4.42921 0,-4.29441 -3.553,-4.98768 -6.70159,-4.98768 -4.18849,0 -7.25042,1.29988 -7.51039,5.68095 l -4.92991,0 c 0.29811,-7.42375 6.05647,-10.04276 12.72917,-10.04276 5.42096,0 11.28485,1.22285 11.28485,8.27107 l 0,8.83916 -4.9299,0"
       style="fill:#110f0e;fill-opacity:1;fill-rule:nonzero;stroke:none"
       id="path3074" />
    <path
       inkscape:connector-curvature="0"
       d="m 623.08065,386.15473 0,-1.85834 c -1.91611,1.39616 -5.64242,1.44431 -8.96433,2.0124 -3.24488,0.607 -6.05646,1.75243 -6.05646,5.42097 0,3.28339 2.81158,4.41958 5.82537,4.41958 6.52827,0 9.19542,-4.08257 9.19542,-6.78824 l 0,-3.20637 4.95879,0 0,6.61493 c 0,2.33015 0,3.37968 1.56948,3.37968 0.3944,0 0.86659,-0.0539 1.52134,-0.2696 l 0,3.8226 c -0.88584,0.50993 -2.00277,0.81844 -3.553,0.81844 -2.56123,0 -4.19812,-1.38654 -4.19812,-4.64104 -2.72492,3.1871 -6.41272,4.64104 -10.58196,4.64104 -5.47874,0 -9.95609,-2.43607 -9.95609,-8.45401 0,-6.76899 5.04545,-8.26144 10.1583,-9.24357 5.48837,-1.04953 10.14867,-0.69327 10.14867,-4.42921 0,-4.29441 -3.54337,-4.98768 -6.68233,-4.98768 -4.21738,0 -7.27931,1.29988 -7.52966,5.68095 l -4.92028,0 c 0.27885,-7.42375 6.04684,-10.04276 12.72917,-10.04276 5.41134,0 11.29448,1.22285 11.29448,8.27107 l 0,8.83916 -4.95879,0"
       style="fill:#110f0e;fill-opacity:1;fill-rule:nonzero;stroke:none"
       id="path3076" />
    <path
       inkscape:connector-curvature="0"
       d="m 431.19959,369.73777 4.65067,0 0,4.41958 0.0963,0 c 2.23386,-3.37005 5.61354,-5.11285 9.73463,-5.11285 3.66854,0 7.03859,1.44431 8.28069,5.11285 2.01241,-3.21599 5.57503,-5.11285 9.39763,-5.11285 6.00832,0 10.01387,2.50347 10.01387,8.72362 l 0,22.05939 -4.94916,0 0,-19.73887 c 0,-3.70705 -0.98213,-6.68233 -5.79649,-6.68233 -4.7951,0 -7.85703,3.04268 -7.85703,7.67409 l 0,18.74711 -4.94916,0 0,-19.73887 c 0,-3.89 -1.23248,-6.68233 -5.64243,-6.68233 -5.86389,0 -8.03035,5.42097 -8.03035,7.67409 l 0,18.74711 -4.94916,0 0,-30.08974"
       style="fill:#110f0e;fill-opacity:1;fill-rule:nonzero;stroke:none"
       id="path3078" />
    <path
       inkscape:connector-curvature="0"
       d="m 531.86782,399.82751 0,-30.08974 4.94916,0 0,30.08974 -4.94916,0 z"
       style="fill:#110f0e;fill-opacity:1;fill-rule:nonzero;stroke:none"
       id="path3080" />
    <path
       inkscape:connector-curvature="0"
       d="m 531.86782,364.34569 0,-6.07572 4.94916,0 0,6.07572 -4.94916,0 z"
       style="fill:#110f0e;fill-opacity:1;fill-rule:nonzero;stroke:none"
       id="path3082" />
    <path
       inkscape:connector-curvature="0"
       d="m 546.93676,384.34453 c 0,5.41134 1.97389,11.43892 8.49253,11.43892 6.50901,0 8.95471,-5.97943 8.95471,-11.6026 0,-5.2958 -2.33015,-10.77454 -8.5503,-10.77454 -6.34533,0 -8.89694,5.16099 -8.89694,10.93822 l -5.24765,0.58774 c 0,-7.10599 3.49523,-15.88738 13.89424,-15.88738 3.80334,0 7.16377,1.6754 8.97396,5.02619 l -0.0539,0 0.11555,0 0,-4.33292 4.6603,0 0,27.5285 c 0,9.75389 -4.50624,14.76082 -13.97127,14.76082 -5.64243,0 -12.1707,-2.24349 -12.43067,-8.82953 l 4.9299,0 c 0.24033,3.61077 4.54475,4.8625 7.78,4.8625 6.4705,0 9.03174,-4.62179 9.03174,-11.4004 l 0,-1.945 -0.11555,0 c -1.61762,3.66854 -5.58465,5.44022 -9.36874,5.44022 -8.94508,0 -13.44169,-7.03859 -13.44169,-15.223 l 5.24765,-0.58774"
       style="fill:#110f0e;fill-opacity:1;fill-rule:nonzero;stroke:none"
       id="path3084" />
    <path
       inkscape:connector-curvature="0"
       d="m 575.84217,399.82751 0,-30.08974 4.94916,0 0,30.08974 -4.94916,0 z"
       style="fill:#110f0e;fill-opacity:1;fill-rule:nonzero;stroke:none"
       id="path3086" />
    <path
       inkscape:connector-curvature="0"
       d="m 575.84217,364.34569 0,-6.07572 4.94916,0 0,6.07572 -4.94916,0 z"
       style="fill:#110f0e;fill-opacity:1;fill-rule:nonzero;stroke:none"
       id="path3088" />
    <path
       inkscape:connector-curvature="0"
       d="m 594.41596,369.73777 6.00832,0 0,4.36181 -6.00832,0 0,18.67008 c 0,2.30126 0.66477,2.6479 3.72632,2.6479 l 2.282,0 0,4.40995 -3.79371,0 c -5.10322,0 -7.15414,-1.04953 -7.15414,-6.59567 l 0,-19.13226 -5.11285,0 0,-4.36181 5.11285,0 0,-9.02211 4.93953,0 0,9.02211"
       style="fill:#110f0e;fill-opacity:1;fill-rule:nonzero;stroke:none"
       id="path3090" />
    <path
       inkscape:connector-curvature="0"
       d="m 634.81806,399.82751 0,-41.56717 4.94916,0 0,41.56717 -4.94916,0 z"
       style="fill:#110f0e;fill-opacity:1;fill-rule:nonzero;stroke:none"
       id="path3092" />
    <path
       inkscape:connector-curvature="0"
       d="m 286.66292,242.56168 c 0,-44.58096 -14.00015,-68.18094 -40.81613,-68.18094 -8.6851,0 -13.20097,3.37968 -13.63426,14.56825 -1.40579,36.71429 -1.40579,82.70104 0,115.48682 0.43368,9.94647 3.61077,14.71268 13.63426,14.71268 26.98929,0 40.81613,-25.82421 40.81613,-76.58681 l 34.2012,3.20636 c 0,57.61824 -30.95632,85.11786 -82.55661,85.11786 l -40.6717,0 c 3.28339,-41.38422 4.34255,-124.15267 0,-168.55069 l 40.18063,0 c 46.40079,0 83.04768,14.43345 83.04768,83.43283 l -34.2012,-3.20636"
       style="fill:#110f0e;fill-opacity:1;fill-rule:nonzero;stroke:none"
       id="path3094" />
    <path
       inkscape:connector-curvature="0"
       d="m 560.43622,242.56168 c 0,-44.58096 -13.99052,-68.18094 -40.8065,-68.18094 -8.6851,0 -13.22985,3.37968 -13.65352,14.56825 -1.39616,36.71429 -1.39616,82.70104 0,115.48682 0.42367,9.94647 3.64929,14.71268 13.65352,14.71268 26.98929,0 40.8065,-25.82421 40.8065,-76.58681 l 34.21083,3.20636 c 0,57.61824 -30.95632,85.11786 -82.55661,85.11786 l -40.66207,0 c 3.29302,-41.38422 4.32329,-124.15267 0,-168.55069 l 40.15174,0 c 46.41042,0 83.06694,14.43345 83.06694,83.43283 l -34.21083,-3.20636"
       style="fill:#110f0e;fill-opacity:1;fill-rule:nonzero;stroke:none"
       id="path3096" />
    <path
       inkscape:connector-curvature="0"
       d="m 341.10369,196.70973 c 0,51.2344 96.81674,49.46272 96.81674,94.57326 0.0154,27.10484 -14.61639,42.60707 -50.89739,42.60707 -25.69905,0 -41.2398,-5.2958 -50.25228,-8.96434 l 0,-34.30711 c 0,-2.85973 1.8102,-2.9175 3.22562,-0.30812 9.49392,17.82275 25.36204,32.391 42.87668,32.391 18.93968,0 27.75959,-10.77453 27.75959,-27.11447 0,-35.86697 -74.34332,-36.29063 -74.34332,-87.86204 0,-3.86111 0.94361,-9.95609 1.29025,-11.25597 0.70328,-2.70566 3.52411,-2.53235 3.52411,0.24034"
       style="fill:#110f0e;fill-opacity:1;fill-rule:nonzero;stroke:none"
       id="path3098" />
    <path
       inkscape:connector-curvature="0"
       d="m 451.92059,269.31988 c 0,-49.27014 -76.6831,-50.2619 -76.6831,-81.45894 0,-13.26837 11.78555,-17.81312 25.84347,-17.81312 17.64944,0 31.53405,11.5352 39.4296,24.43768 1.67539,2.02203 3.47596,1.77168 3.47596,-1.23248 l 0,-26.70043 c -6.14312,-2.66715 -23.61924,-8.29032 -41.85603,-8.29032 -30.42674,0 -53.48752,9.13765 -53.48752,32.28508 0,45.60161 97.66407,44.79279 97.66407,92.01202 0,4.35218 -0.25034,6.37421 -0.52919,8.78139 -0.24033,2.40718 2.52272,3.32191 3.44708,0.51995 1.56948,-4.7277 2.69604,-11.74703 2.69604,-22.54083"
       style="fill:#110f0e;fill-opacity:1;fill-rule:nonzero;stroke:none"
       id="path3100" />
  </g>
</svg>
