<?xml version="1.0" encoding="UTF-8" standalone="no"?>
<!-- Created with Inkscape (http://www.inkscape.org/) -->
<svg
   xmlns:dc="http://purl.org/dc/elements/1.1/"
   xmlns:cc="http://creativecommons.org/ns#"
   xmlns:rdf="http://www.w3.org/1999/02/22-rdf-syntax-ns#"
   xmlns:svg="http://www.w3.org/2000/svg"
   xmlns="http://www.w3.org/2000/svg"
   xmlns:sodipodi="http://sodipodi.sourceforge.net/DTD/sodipodi-0.dtd"
   xmlns:inkscape="http://www.inkscape.org/namespaces/inkscape"
   id="svg2510"
   sodipodi:version="0.32"
   inkscape:version="0.46"
   width="917"
   height="463"
   version="1.0"
   sodipodi:docname="mp3.svg"
   inkscape:output_extension="org.inkscape.output.svg.inkscape">
  <metadata
     id="metadata2515">
    <rdf:RDF>
      <cc:Work
         rdf:about="">
        <dc:format>image/svg+xml</dc:format>
        <dc:type
           rdf:resource="http://purl.org/dc/dcmitype/StillImage" />
      </cc:Work>
    </rdf:RDF>
  </metadata>
  <defs
     id="defs2513">
    <inkscape:perspective
       sodipodi:type="inkscape:persp3d"
       inkscape:vp_x="0 : 526.18109 : 1"
       inkscape:vp_y="0 : 1000 : 0"
       inkscape:vp_z="744.09448 : 526.18109 : 1"
       inkscape:persp3d-origin="372.04724 : 350.78739 : 1"
       id="perspective2517" />
  </defs>
  <sodipodi:namedview
     inkscape:window-height="669"
     inkscape:window-width="640"
     inkscape:pageshadow="2"
     inkscape:pageopacity="0.0"
     guidetolerance="10.0"
     gridtolerance="10.0"
     objecttolerance="10.0"
     borderopacity="1.0"
     bordercolor="#666666"
     pagecolor="#ffffff"
     id="base"
     showgrid="false"
     inkscape:zoom="0.59323882"
     inkscape:cx="458.5"
     inkscape:cy="231.5"
     inkscape:window-x="138"
     inkscape:window-y="138"
     inkscape:current-layer="svg2510" />
  <path
     style="fill:#000000"
     d="M 196,459.91497 C 186.375,459.51832 174.675,458.67501 170,458.04095 C 135.57216,453.37155 99.94984,438.02791 72.920683,416.22586 C 68.752058,412.86339 60.187061,404.76616 53.887356,398.232 C 25.700913,368.99658 7.6469657,330.94368 2.9852232,290.94391 C 1.4290936,277.59165 2.1971832,245.13657 4.3893428,231.61384 C 11.407838,188.319 29.790571,146.61237 56.669919,113 C 104.68114,52.962426 184.45756,11.223057 266.85595,3.0297475 C 339.89842,-4.2332521 406.92652,24.144768 442.27692,77.29859 C 451.74253,91.53133 462.66481,115.33002 461.46548,119.10877 C 460.2465,122.94944 457.25344,121.28218 455.43585,115.75 C 449.26083,96.955204 436.29648,76.308656 421.37493,61.505843 C 402.50943,42.790452 372.71033,27.711589 343.33788,22.017745 C 306.91057,14.956313 269.86096,17.714369 227,30.678195 C 178.29415,45.409883 138.38132,68.607815 106,101.00521 C 71.498722,135.52362 50.423195,175.93592 41.335158,225 C 38.783471,238.77593 38.765994,276.09575 41.305715,287.87475 C 47.644582,317.27386 60.516113,340.66407 81.417219,360.76558 C 103.45821,381.96337 132.00203,396.47939 164.62143,403.07926 C 178.03976,405.79418 211.4873,406.87028 226.73288,405.07755 C 269.33969,400.0674 304.22782,383.82239 328.8046,357.54973 C 342.07455,343.36411 348.53611,332.09286 361.79661,300 C 366.22809,289.275 374.21338,270.6 379.5417,258.5 C 401.12934,209.47692 400.9666,209.9666 396.99156,205.99156 C 395.07962,204.07962 394.03859,203.83528 389.89518,204.32601 C 381.72198,205.294 374.80035,211.49318 369.0449,223 C 367.53186,226.025 356.92593,249.5375 345.47616,275.25 L 324.65839,322 L 287.3292,322 C 252.4461,322 249.99968,321.88533 249.99513,320.25 C 249.99245,319.2875 260.34245,295.2875 272.99513,266.91666 C 292.40237,223.40021 296,214.59966 296,210.64191 C 296,206.44771 295.70855,205.83813 293.25,204.89022 C 286.23098,202.18398 277.2974,206.62897 270.92145,216 C 268.86327,219.025 257.25322,243.73825 245.12133,270.91833 C 232.98944,298.09841 222.71159,320.66744 222.28167,321.07173 C 221.85175,321.47603 205.12429,321.96278 185.10953,322.15341 C 153.58228,322.45368 148.59708,322.29954 147.80626,321 C 146.97035,319.62634 161.86711,285.32186 205.02419,189.2377 L 212.32855,172.9754 L 248.40082,173.2377 C 283.5819,173.49352 284.48201,173.54941 284.83361,175.5 C 285.45542,178.94955 286.49289,179.11415 292.07317,176.64856 C 303.40189,171.64308 314.37495,169.55638 329.5,169.53127 C 341.18476,169.51187 344.65987,169.87234 350.51361,171.711 C 358.59157,174.24827 365.65852,178.63153 368.41316,182.81313 L 370.32632,185.71735 L 378.41316,181.93181 C 405.68966,169.16337 436.69881,165.67731 456.63847,173.13769 C 463.82607,175.82692 472.31874,183.66392 474.68181,189.78802 C 477.33052,196.65236 476.95035,207.52291 473.73013,217 C 467.56703,235.13805 427.3998,322.439 415.17704,344.26146 C 385.77015,396.76443 352.91776,427.79628 308.06076,445.44181 C 289.22251,452.85227 261.84653,458.45701 239.25516,459.52853 C 217.01963,460.58317 213.07035,460.61845 196,459.91497 z M 424.50376,399.00608 C 424.16591,398.45943 432.27947,379.22193 442.53389,356.25608 C 478.15428,276.48055 484.04848,263.25336 503.9198,218.5 L 523.90063,173.5 L 563.20032,173.5 L 602.5,173.5 L 602.81642,176.25 C 603.20295,179.6093 603.41199,179.61637 610.21883,176.50009 C 620.97448,171.57599 630.36084,169.73941 645,169.69465 C 675.59978,169.60107 693.5119,178.7057 699.13234,197.20981 C 708.11132,226.77114 680.93502,281.02104 645.25886,304.75318 C 624.6785,318.44344 605.63302,324.5577 580,325.70353 C 565.91341,326.33322 559.17977,325.1195 548.60688,320.045 C 545.26768,318.44234 542.45643,317.21408 542.35968,317.31553 C 542.26292,317.41699 534.66534,334.375 525.47617,355 C 516.28701,375.625 507.91152,394.1875 506.86398,396.25 L 504.95935,400 L 465.03869,400 C 439.6665,400 424.89417,399.63778 424.50376,399.00608 z M 578.47173,295.57626 C 589.36783,291.02358 603.04078,270.54517 615.47908,240.14917 C 621.61114,225.16401 624.27441,214.12333 623.80328,205.64098 C 623.50903,200.34334 622.98927,198.46532 621.52002,197.39098 C 614.50849,192.26402 599.85383,202.06561 588.46415,219.5 C 578.72636,234.40581 566.84978,260.64974 563.47679,274.7151 C 561.39831,283.38236 561.82984,292.0495 564.48598,294.9845 C 566.69621,297.42679 573.36724,297.70905 578.47173,295.57626 z M 730.85375,324.47781 C 717.48455,322.65375 710.04055,320.49719 699.06017,315.26706 C 691.57146,311.70006 688.08522,309.26516 682.19311,303.48655 C 678.10813,299.48026 674.93105,295.7269 675.13294,295.14577 C 675.76071,293.3387 712.98096,265.99905 714.78945,266.0166 C 715.73025,266.02572 719.425,267.10862 723,268.42304 C 728.64879,270.49993 729.4693,271.11979 729.26559,273.15644 C 727.88206,286.98839 727.82719,291.16858 728.99224,293.98126 C 731.9907,301.22018 742.67811,304.27295 755.71603,301.61468 C 767.77754,299.15549 775.1583,294.98977 785.02838,285.07071 C 797.70025,272.33595 804.60509,257.8437 803.8265,245.61618 C 803.34623,238.07371 800.818,234.05849 794.6773,231.08583 C 790.82098,229.21902 788.56086,229 773.15289,229 C 758.54117,229 755.84745,228.76604 755.34368,227.45322 C 754.81399,226.07288 761.94929,208.40193 764.30905,205.25 C 764.96422,204.3749 768.74416,204 776.91235,204 C 790.29963,204 797.01833,202.57902 807.90098,197.446 C 823.20484,190.22763 837.48652,171.88307 840.21832,155.93498 C 841.18168,150.31088 841.09267,148.99754 839.52407,145.69197 C 837.0562,140.49132 831.93792,138 823.72134,138 C 812.84036,138 802.13352,142.07043 794.49569,149.11074 C 789.30762,153.89294 786.7645,158.81238 786.04044,165.46673 L 785.5,170.43346 L 776.5,173.22486 C 771.55,174.76013 766.99105,175.82227 766.369,175.58518 C 764.96664,175.05067 748,148.05581 748,146.35908 C 748,144.78793 762.25794,135.33711 771.87873,130.53116 C 796.49437,118.23471 831.93267,111.76309 862.13373,114.04911 C 895.19493,116.55163 913.18257,127.94746 914.74232,147.3786 C 916.73428,172.19428 895.16666,196.51306 860.5,208.54005 C 856.1,210.06655 852.12101,211.64601 851.65779,212.04997 C 851.19457,212.45392 853.63299,214.28608 857.07649,216.12145 C 877.07663,226.78142 882.95446,244.99196 873.41561,266.74289 C 866.28374,283.00532 849.86364,298.90785 829.61228,309.16554 C 820.41957,313.82181 801.73864,320.21588 791,322.38168 C 771.99405,326.21484 749.36523,327.00346 730.85375,324.47781 z"
     id="path2521" />
</svg>
