<?xml version="1.0" encoding="UTF-8" standalone="no"?>
<svg
   xmlns:dc="http://purl.org/dc/elements/1.1/"
   xmlns:cc="http://creativecommons.org/ns#"
   xmlns:rdf="http://www.w3.org/1999/02/22-rdf-syntax-ns#"
   xmlns:svg="http://www.w3.org/2000/svg"
   xmlns="http://www.w3.org/2000/svg"
   version="1.1"
   width="328"
   height="145"
   style="stroke-linejoin:round;stroke-width:1.08px">
  <metadata>
    <rdf:RDF>
      <cc:Work
         rdf:about="">
        <dc:format>image/svg+xml</dc:format>
        <dc:type
           rdf:resource="http://purl.org/dc/dcmitype/StillImage" />
        <dc:title></dc:title>
      </cc:Work>
    </rdf:RDF>
  </metadata>
  <defs />
  <path
     d="M 109.98,55.749 55.31,110.41 0.65,55.749 55.31,1.081 109.98,55.749 z"
     style="fill:#9dff68;stroke:#9bc581" />
  <g
     style="fill:#ff0000;stroke:#be2800">
    <path
       d="m 131.4061,72.396 c -1.011,-1.828 -1.644,-6.218 -1.465,-10.337 0.548,-0.918 2.56,-1.012 3.111,-0.182 1.19,3.746 4.67,9.156 9.337,9.156 2.742,0 4.761,-1.654 4.761,-4.767 0,-3.385 -2.93,-5.308 -6.044,-6.862 -5.49,-2.746 -9.422,-6.039 -9.422,-11.535 0,-7.963 6.677,-11.806 14.549,-11.806 4.67,0 8.795,1.188 9.797,1.92 0.908,2.016 1.365,5.677 1.365,9.152 -0.363,1.008 -2.652,1.008 -3.199,0.37 -1.829,-5.308 -4.12,-7.231 -7.137,-7.231 -2.66,0 -4.576,1.558 -4.576,4.032 0,2.102 1.737,3.837 5.853,5.854 6.226,3.024 10.07,6.861 10.07,12.819 -0.085,8.14 -7.049,12.261 -15.651,12.261 -5.212,0 -8.874,-0.916 -11.349,-2.844 z" />
    <path
       d="m 177.9471,63.613 c 0,2.01 0.735,3.938 2.103,5.309 1.19,1.282 2.933,2.111 4.398,2.111 5.671,0 8.789,-6.044 8.789,-14.56 0,-8.968 -4.401,-14.094 -10.436,-14.094 -1.561,0 -3.111,0.365 -3.847,1.281 -0.462,0.551 -1.007,1.742 -1.007,5.307 l 0,14.646 z m -11.901,-14.099 c 0,-3.657 0,-4.659 -1.74,-5.854 l -1.28,-0.824 c -0.639,-0.551 -0.639,-2.197 0,-2.744 3.756,-1.104 10.614,-4.029 13.18,-5.776 0.645,-0.084 1.556,0.282 1.925,1.102 -0.184,1.101 -0.184,2.111 -0.184,3.023 0,0.645 0.363,1.194 0.735,1.288 2.742,-1.377 6.77,-3.666 11.622,-3.666 9.703,0 15.56,7.597 15.56,17.484 0,12.812 -9.065,21.693 -22.427,21.693 -1.28,0 -3.293,-0.095 -4.119,-0.283 -0.826,0.188 -1.371,0.737 -1.371,2.66 l 0,9.064 c 0,6.411 0.363,7.143 3.389,7.413 l 3.112,0.279 c 0.729,0.547 0.729,2.65 -0.097,3.199 -4.576,-0.186 -8.235,-0.273 -12.539,-0.273 -4.026,0 -7.594,0.087 -10.893,0.273 -0.823,-0.549 -0.823,-2.652 -0.091,-3.199 l 1.834,-0.186 c 3.018,-0.363 3.384,-1.095 3.384,-7.506 l 0,-37.167 z" />
    <path
       d="m 229.7071,48.234 c 1.284,0 2.748,-0.179 3.754,-0.822 0.463,-0.277 0.641,-1.19 0.641,-2.105 0,-3.022 -1.74,-5.033 -4.852,-5.033 -3.843,0 -7.138,3.662 -7.138,6.591 0,1.278 1.279,1.369 4.209,1.369 l 3.386,0 z m -6.046,4.028 c -2.1,0 -2.281,0.189 -2.281,1.652 0,6.865 4.39,13.545 12.904,13.545 2.558,0 6.044,-0.543 8.513,-4.76 1.008,-0.179 2.377,0.55 2.377,2.104 -3.75,7.781 -10.529,10.437 -16.014,10.437 -12.363,0 -19.04,-8.697 -19.04,-18.677 0,-11.525 8.327,-20.5 19.773,-20.5 9.516,0 14.642,6.134 14.642,13.179 0,1.744 -0.46,3.02 -3.296,3.02 l -17.578,0 z" />
    <path
       d="m 268.1551,48.234 c 1.283,0 2.742,-0.179 3.746,-0.822 0.457,-0.277 0.644,-1.19 0.644,-2.105 0,-3.022 -1.74,-5.033 -4.851,-5.033 -3.84,0 -7.139,3.662 -7.139,6.591 0,1.278 1.279,1.369 4.213,1.369 l 3.387,0 z m -6.051,4.028 c -2.098,0 -2.281,0.189 -2.281,1.652 0,6.865 4.394,13.545 12.908,13.545 2.556,0 6.041,-0.543 8.51,-4.76 1.007,-0.179 2.376,0.55 2.376,2.104 -3.755,7.781 -10.517,10.437 -16.013,10.437 -12.363,0 -19.041,-8.697 -19.041,-18.677 0,-11.525 8.33,-20.5 19.773,-20.5 9.516,0 14.643,6.134 14.643,13.179 0,1.744 -0.457,3.02 -3.297,3.02 l -17.578,0 z" />
    <path
       d="m 323.7091,40.455 c -2.654,0.373 -4.025,0.733 -5.492,1.647 -1.277,0.826 -4.756,4.67 -6.865,7.326 -1.092,1.465 -1.736,2.284 -1.736,2.742 0,0.55 1.103,2.377 1.927,3.578 l 6.219,9.241 c 3.293,4.758 5.031,5.579 8.143,5.945 l 1.004,0.099 c 0.736,0.637 0.736,2.832 -0.27,3.199 -4.027,-0.185 -7.594,-0.271 -11.074,-0.271 -3.662,0 -7.965,0.086 -12.17,0.271 -0.826,-0.367 -1.01,-2.562 -0.281,-3.199 l 2.015,-0.367 c 1.278,-0.279 1.557,-0.645 1.557,-1.008 0,-0.373 -0.367,-1.283 -1.096,-2.472 -1.281,-2.016 -2.476,-3.937 -3.935,-6.045 -1.286,1.922 -2.573,4.029 -3.756,6.045 -0.729,1.278 -1.092,2.099 -1.092,2.654 0,0.457 0.363,0.728 1.643,0.91 l 1.462,0.283 c 0.733,0.547 0.547,2.832 -0.185,3.199 -2.649,-0.185 -5.404,-0.271 -8.235,-0.271 -2.109,0 -4.3,0.086 -7.142,0.271 -0.82,-0.455 -1.1,-2.474 -0.182,-3.199 l 2.291,-0.367 c 1.553,-0.279 3.475,-0.919 4.303,-1.838 1.369,-1.369 6.227,-7.687 7.504,-9.603 0.545,-0.92 0.816,-1.559 0.816,-2.016 0,-0.369 -0.728,-1.648 -2.92,-4.857 l -4.945,-7.588 c -1.834,-2.842 -3.572,-3.576 -5.584,-4.032 l -1.92,-0.458 c -0.646,-0.458 -0.646,-2.934 0.274,-3.204 3.57,0.181 6.046,0.27 11.076,0.27 3.291,0 6.492,-0.089 9.795,-0.27 1.095,0.368 1.189,2.659 0.187,3.204 l -1.101,0.271 c -0.733,0.094 -1.375,0.369 -1.375,0.643 0,0.365 0.179,0.824 0.826,1.921 1.187,2.016 2.465,3.756 3.748,5.586 0.914,-1.283 2.473,-3.476 3.933,-5.673 0.551,-0.825 0.651,-1.19 0.651,-1.647 0,-0.371 -0.553,-0.643 -1.467,-0.83 l -1.008,-0.271 c -0.826,-0.545 -0.644,-2.836 0.276,-3.204 2.65,0.181 5.029,0.27 8.332,0.27 2.281,0 4.664,-0.089 6.949,-0.27 0.92,0.27 1.004,2.659 0.183,3.204 l -1.283,0.181 z" />
  </g>
  <path
     d="m 80.604,78.324 9.906,12.295 c 0,0 6.489,4.44 9.222,7.856 2.731,3.417 29.034,40.302 30.056,42.693 1.025,2.393 4.099,4.441 5.807,1.709 1.708,-2.732 0.343,-3.075 0.343,-4.44 0,-1.366 3.073,-0.001 3.073,-1.708 0,-1.708 -30.741,-37.229 -34.497,-46.793 -3.756,-9.565 -3.074,-11.956 -3.074,-11.956 0,0 -14.686,-10.928 -17.077,-8.538 -2.393,2.392 -3.759,8.198 -3.759,8.198"
     style="fill:#ff0000;stroke:#be2800" />
  <path
     d="m 59.587,80.127 c 0,0 -4.86,4.978 -4.86,7.35 0,2.371 2.25,7.23 4.977,6.877 2.728,-0.358 4.034,-1.187 3.914,-2.016 0,0 -4.491,-1.561 -2.941,-4.471 0,0 2.853,-3.998 3.636,-4.139 0.782,-0.142 7.198,-0.071 7.839,0.286 0.639,0.355 0.712,1.638 0.569,1.852 -0.141,0.212 0.143,0.996 0.357,0.855 0.214,-0.143 1.995,-2.352 1.21,-3.207 0,0 -2.85,-2.352 -5.414,-2.707 -2.566,-0.358 -3.92,-1.711 -3.92,-1.711 l -5.367,1.031 z"
     style="fill:#ffff00;stroke:#e6cb26" />
  <path
     d="m 50.73,76.271 c 1.082,0.504 2.356,3.718 2.356,3.718 0.785,0.856 -0.996,3.065 -1.21,3.206 -0.214,0.143 -0.498,-0.64 -0.357,-0.853 0.143,-0.214 0.07,-1.497 -0.569,-1.854 -0.641,-0.355 -3.999,-1.437 -4.781,-1.296 -0.782,0.142 -3.645,1.109 -3.645,1.109 -6,2.062 -2.062,4.569 -2.062,4.569 0.12,0.829 -1.509,1.521 -4.21,0.996 -2.766,-0.538 -6.712,-6.151 -6.712,-8.522 0,0 2.936,-2.675 14.25,-2.455 5.101,0.099 6.401,1.131 6.94,1.382 z"
     style="fill:#ffff00;stroke:#e6cb26" />
  <path
     d="m 58.711,80.613 c 1.875,-4.125 -5.599,-6.396 -5.599,-6.396 -0.671,-0.055 -1.652,0.054 -1.845,1.799 -0.194,1.744 -8.42,-1.246 -8.42,-1.246 0,0 2.569,-0.971 1.582,-1.711 C 43.444,72.319 39.773,59.465 39.773,59.465 34.356,56.508 29.561,46.197 29.561,46.197 l -2.031,0.406 c -9.615,-7.894 -4.503,-20.63 -4.503,-20.63 l -3.424,0.361 c 0,0 -8.587,-9.768 -0.074,-16.481 6.616,-5.216 13.937,-4.782 21.141,0.228 7.796,5.423 9.598,7.237 11.994,13.224 1.477,3.692 1.324,6.903 6.902,9.967 6.08,3.341 17.247,9.884 18.724,13.331 0,0 14.622,29.331 13.257,31.721 -1.368,2.391 -5.356,-1.839 -7.858,-0.684 -4.438,2.049 -14.346,-2.391 -16.394,-2.391 0,0 -1.125,1.657 -1.647,3.847 0,0 -0.937,1.394 -6.061,1.643 l -0.876,-0.126 z"
     style="fill:#ff0000;stroke:#be2800" />
  <path
     d="m 27.602522,22.929591 c 0,0 3.279498,2.368277 3.857287,3.899195 0.544631,1.443062 3.606815,8.690554 1.472329,11.482326 -2.148967,2.810712 -7.412551,0.21109 -10.015679,-2.624977"
     style="fill:#fff001;stroke:#fccd4d" />
  <path
     d="m 11.724676,15.312984 c 1.32744,-1.827777 2.657062,-1.896258 6.357624,-1.372047 2.703454,0.382963 11.873055,10.66635 11.911859,10.821565 l -2.16348,5.182141 -7.923088,10.379083 C 17.438675,39.176389 10.513696,35.285949 10.160165,27.616781 9.879255,21.522997 9.8866952,17.843736 11.724676,15.312984 z"
     style="fill:#ffff00;stroke:#fccd4d" />
  <path
     d="m 45.006,47.287 c 0,0 12.132,19.484 13.602,18.746 1.471,-0.734 4.413,-1.101 4.413,-1.101 l 4.778,6.617 c 0,0 3.677,1.471 4.043,-0.367 0.369,-1.839 12.867,7.718 12.867,7.718 0,0 27.02,8.332 30.879,11.03 2.168,1.515 2.941,3.307 2.941,3.307 0,0 4.412,4.412 3.308,-3.307 -1.102,-7.72 -4.043,-8.089 -4.043,-8.089 L 115.957,76.327 111.545,73.018 92.063,59.785 57.138,44.346 45.006,47.287 z"
     style="fill:#0a50a1;stroke:#07397d" />
  <path
     d="m 48.642,46.184 c 0,0 9.925,12.865 12.867,11.029 2.941,-1.839 11.027,2.939 11.027,2.939 0,0 13.603,7.72 16.175,5.516 2.575,-2.207 5.147,-7.353 3.31,-10.294 -1.839,-2.941 -13.968,-12.13 -13.968,-12.13 l -29.411,2.94 z"
     style="fill:#ffff00;stroke:#f1d219" />
  <path
     d="m 43.772,46.711 c 0,0 -5.727,-12.854 3.815,-12.812 8.59,0.039 10.602,-1.061 10.602,-1.061 l -3.12,-3.264 c 0,0 3.349,-0.791 7.91,2.274 4.269,2.866 15.956,10.23 15.683,12.136 -0.272,1.91 -6.269,-0.271 -6.269,-0.271 0,0 1.634,6.812 -5.18,5.178 -6.815,-1.635 -15.536,-4.633 -16.899,-3.27 -1.362,1.362 -4.907,3.272 -6.542,1.09 z"
     style="fill:#009900;stroke:#428d29;stroke-linecap:round" />
  <path
     d="m 44.944,15.785 c 0.071,5.145 -3.984,9.373 -9.064,9.445 -5.071,0.067 -9.234,-4.054 -9.299,-9.202 -0.067,-5.145 3.987,-9.374 9.059,-9.444 5.077,-0.065 9.24,4.055 9.304,9.201 z"
     style="fill:#ffffff;stroke:#003974" />
  <path
     d="m 37.898,15.822 c 0.015,1.03 -0.802,1.875 -1.816,1.891 -1.014,0.01 -1.849,-0.813 -1.863,-1.842 -0.015,-1.029 0.8,-1.879 1.816,-1.892 1.014,-0.013 1.846,0.813 1.863,1.843 z"
     style="fill:#232020" />
</svg>
