<?xml version="1.0" encoding="utf-8"?>
<!-- Generator: Adobe Illustrator 25.0.1, SVG Export Plug-In . SVG Version: 6.00 Build 0)  -->
<svg version="1.1" id="레이어_1" xmlns="http://www.w3.org/2000/svg" xmlns:xlink="http://www.w3.org/1999/xlink" x="0px"
	 y="0px" viewBox="0 0 900 998" style="enable-background:new 0 0 900 998;" xml:space="preserve">
<style type="text/css">
	.st0{fill:#006697;}
	.st1{fill:url(#SVGID_1_);}
</style>
<g>
	<g>
		<path class="st0" d="M524.0053,995.0536l63.9951-177.3524h43.0798l64.1191,177.3524H654.313l-12.0456-36.4773h-65.7023
			l-12.0455,36.4773H524.0053z M587.0629,926.7863h44.7068l-22.3534-67.6922L587.0629,926.7863z"/>
		<path class="st0" d="M310.6188,995.0536l63.9951-177.3524h43.0799l64.1191,177.3524h-40.8863l-12.0456-36.4773h-65.7023
			l-12.0456,36.4773H310.6188z M373.6765,926.7863h44.7068l-22.3534-67.6922L373.6765,926.7863z"/>
		<path class="st0" d="M850.877,932.1365h38.1606c-1.6796,19.8292-9.7801,35.7639-24.3111,47.804
			c-14.5214,12.0402-32.949,18.0553-55.2829,18.0553c-26.1154,0-46.6642-8.3043-61.6462-24.9227
			c-14.9916-16.6184-22.4875-39.4502-22.4875-68.5052c0-29.6198,7.4958-52.6002,22.4875-68.9313
			c14.9821-16.3311,31.0155-24.5065,58.1387-24.5065c21.3262,0,44.1443,5.8268,58.4162,17.4608
			c14.2718,11.6438,22.4203,26.9343,24.4358,45.8716h-38.4197c-1.7563-10.1871-6.085-17.8373-12.9665-22.9308
			c-6.8912-5.1035-16.2106-7.6502-27.9582-7.6502c-13.7728,0-24.7046,5.4404-32.8146,16.3112
			c-8.1005,10.8808-12.1508,25.6758-12.1508,44.3752c0,18.5409,4.175,33.2468,12.5347,44.1276
			c8.35,10.8708,19.6657,16.3112,33.9376,16.3112c10.7495,0,19.7521-2.9729,27.0176-8.9088
			C845.2239,950.1622,849.5333,942.175,850.877,932.1365z"/>
	</g>
	<linearGradient id="SVGID_1_" gradientUnits="userSpaceOnUse" x1="1044.7632" y1="759.3578" x2="27.2454" y2="45.0554">
		<stop  offset="0.1694" style="stop-color:#60BBC1"/>
		<stop  offset="0.9518" style="stop-color:#066B9B"/>
	</linearGradient>
	<path class="st1" d="M303.3233,774.7663C49.4166,582.7343-53.8431,333.682,26.9785,165.0306
		C129.621-49.1546,505.5394-45.4308,900,121.8304l-0.0005,51.3195C528.4957,23.7881,236.7076,39.261,161.8008,209.3755
		c-70.279,159.6048,41.9483,380.5191,290.2694,565.3908H303.3233z M665.3373,774.3784
		C475.8158,645.65,352.3943,482.4337,422.7097,340.201c58.9637-119.2709,239.4234-146.6585,477.29-64.3578L900,226.4183
		c-271.7839-108.146-529.3785-88.5495-596.7435,57.2711c-71.9893,155.8307,46.8804,339.9081,249.6097,491.0769L665.3373,774.3784z
		 M900,774.7663V319.6705c-171.2302-50.5197-311.469-19.9585-361.6393,76.0256
		c-58.8984,112.6824,66.6989,282.0642,229.3578,379.0701C767.7185,774.7663,900,774.7663,900,774.7663z"/>
</g>
</svg>
