<?xml version="1.0" encoding="UTF-8" standalone="no"?>
<svg
   xmlns:dc="http://purl.org/dc/elements/1.1/"
   xmlns:cc="http://creativecommons.org/ns#"
   xmlns:rdf="http://www.w3.org/1999/02/22-rdf-syntax-ns#"
   xmlns:svg="http://www.w3.org/2000/svg"
   xmlns="http://www.w3.org/2000/svg"
   xmlns:xlink="http://www.w3.org/1999/xlink"
   version="1.1"
   width="564"
   height="418"
   style="stroke-linejoin:round;stroke-miterlimit:1.41420996">
  <g
     transform="matrix(0.88639483,0.74958402,-0.98642875,0.61198964,-152.23022,-60.230252)"
     id="g2427">
    <rect
       width="342.48499"
       height="262.07001"
       x="243.41499"
       y="-198.66901"
       id="rect7075" />
    <rect
       width="282.233"
       height="251.32201"
       x="273.54099"
       y="-193.709"
       id="rect2160"
       style="fill:#fbfeb0" />
  </g>
  <path
     d="m 255.9067,11.125 -22,13.65625 15.46875,13.0625 22,-13.65625 L 255.9067,11.125 z m -37.09375,23 L 196.7817,47.78125 212.25045,60.875 234.2817,47.21875 218.81295,34.125 z m -36.3125,22.53125 -22.03125,13.6875 15.46875,13.0625 22,-13.65625 -15.4375,-13.09375 z M 145.7192,79.875 l -22.03125,13.65625 15.46875,13.0625 22,-13.65625 -15.4375,-13.0625 z m -37.34375,23.15625 -22.031245,13.65625 15.468745,13.09375 22.03125,-13.6875 -15.46875,-13.0625 z m -35.062495,21.75 -22.03125,13.65625 15.46875,13.09375 22,-13.65625 -15.4375,-13.09375 z m -35.09375,21.78125 -22,13.65625 15.4375,13.0625 22.03125,-13.65625 -15.46875,-13.0625 z"
     id="path8060"
     style="fill:#e6e6e6" />
  <use
     transform="translate(276.51874,234.20133)"
     id="use8069"
     xlink:href="#path8060" />
  <g
     style="stroke-width:3.8"
     id="g2242">
    <path
       d="m 153.24225,122.37139 c 0,0 65.713,-45.233 101.662,-43.28 35.965,1.952 70.978,19.161 70.978,19.161 l 9.335,18.634 c 0,0 25.309,10.963 30.928,18.122 5.505,6.997 5.363,6.447 19.956,45.528 l -157.514,-0.426 z"
       id="path12676"
       style="fill:#66cef5;stroke:#3a9ddd" />
    <path
       d="m 326.86625,183.90639 c 12.828,-5.555 53.735,-9.452 71.587,-18.053 13.603,-6.555 73.447,-29.163 91.152,-17.898 9.656,6.144 -23.438,59.583 -35.859,72.886 -12.295,13.187 -2.495,53.64 -4.583,59.257 -4.331,11.599 -32.98,15.976 -39.901,13.621 -6.486,-2.201 -46.121,-13.652 -63.696,-20.447 -14.304,-5.54 -23.805,-13.947 -64.622,-9.019 z"
       id="path12678"
       style="fill:#66cef5;stroke:#33bef2" />
    <path
       d="m 204.47925,274.64339 c 0,0 34.954,13.714 57.822,13.428 l 23.43,-3.851 c 0,0 19.108,-11.653 -0.408,-23.787"
       id="path12680"
       style="fill:#66cef5;stroke:#3a9ddd" />
    <path
       d="m 248.91225,268.25939 c -25.626,9.375 -105.26,16.953 -133.502,-4.169 l -14.911,-96.749 c 0,0 -10.215,-23.174 41.25,-39.376 32.898,-10.351 29.644,-11.978 73.324,-7.98 27.242,2.495 71.318,24.468 81.268,34.316 17.101,16.929 59.542,29.427 75.673,31.062 16.142,1.627 26.483,0.062 26.483,0.062 0,0 -5.353,34.06 -20.791,52.981 -15.446,18.913 -27.173,20.803 -27.173,20.803 0,0 -25.176,0.574 -48.451,0.899 -34.608,0.48 -53.17,8.151 -53.17,8.151 z"
       id="path12682"
       style="fill:#f9ac15;stroke:#f8a20d" />
    <path
       d="m 72.40425,196.93839 c 0,0 25.657,-66.974 87.501,-71.181 55.138,-3.75 87.727,38.361 87.651,68.803 -0.09,37.709 -29.482,73.466 -68.325,77.449 -47.065,4.827 -69.655,-8.073 -71.082,-12.769 z"
       id="path12684"
       style="fill:#fccc36;stroke:#f8a20d" />
    <path
       d="m 119.44725,261.11539 c -4.722,3.533 -0.742,2.03 -20,4.564 -13.594,1.79 -27.464,-0.38 -35.122,-9.817 -6.736,-8.306 2.363,-9.646 15.109,-10.421 5.687,-0.349 11.673,0.085 10.181,-2.518 -5.97,-10.398 -16.996,-22.361 -30.101,-23.802 -27.883,-3.068 -20.65,-21.664 -20.65,-21.664 1.64,-6.632 21.095,-7.957 38.175,-4.788 l 44.471,49.053"
       id="path12686"
       style="fill:#66cef5;stroke:#33bef2;stroke-width:5" />
    <path
       d="m 187.41925,153.34839 c 0.28,20.284 -16.545,36.958 -37.613,37.237 -21.054,0.263 -38.33,-15.976 -38.596,-36.276 -0.285,-20.3 16.539,-36.966 37.593,-37.237 21.06,-0.264 38.341,15.976 38.616,36.276 z"
       id="path12688"
       style="fill:#ffffff;stroke:#d8691b" />
    <path
       d="m 158.17425,153.48739 c 0.051,4.068 -3.333,7.407 -7.533,7.469 -4.211,0.039 -7.677,-3.199 -7.734,-7.267 -0.057,-4.06 3.319,-7.4 7.538,-7.461 4.206,-0.047 7.655,3.207 7.729,7.259 z"
       id="path12690"
       style="fill:#201b1c" />
    <path
       d="m 242.08425,201.95139 c 0,0 53.914,-2.642 57.253,-5.276 3.332,-2.642 7.445,1.859 8.16,5.098 0.712,3.239 -39.194,38.136 -48.638,37.609 -9.444,-0.542 -47.787,2.061 -46.51,-3.146"
       id="path12692"
       style="fill:#66cef5;stroke:#33bef2" />
  </g>
</svg>
