<?xml version="1.0" encoding="UTF-8"?>
<svg xmlns="http://www.w3.org/2000/svg" xmlns:xlink="http://www.w3.org/1999/xlink" width="187.69pt" height="46.33pt" viewBox="0 0 187.69 46.33" version="1.1">
<defs>
<clipPath id="clip1">
  <path d="M 0 0 L 162 0 L 162 46.328125 L 0 46.328125 Z M 0 0 "/>
</clipPath>
<clipPath id="clip2">
  <path d="M 165 0 L 187.691406 0 L 187.691406 46.328125 L 165 46.328125 Z M 165 0 "/>
</clipPath>
</defs>
<g id="surface1">
<g clip-path="url(#clip1)" clip-rule="nonzero">
<path style=" stroke:none;fill-rule:nonzero;fill:rgb(13.699341%,12.199402%,12.5%);fill-opacity:1;" d="M 130.957031 11.773438 C 130.9375 12.019531 130.890625 12.289063 130.84375 12.574219 C 130.78125 12.859375 130.726563 13.148438 130.640625 13.441406 C 130.570313 13.726563 130.472656 13.980469 130.367188 14.214844 C 130.257813 14.449219 130.132813 14.636719 130.007813 14.785156 C 129.871094 14.933594 129.734375 15.007813 129.597656 15.007813 C 129.363281 15.007813 129.039063 14.875 128.625 14.609375 C 128.195313 14.34375 127.652344 14.054688 126.984375 13.726563 C 126.324219 13.402344 125.507813 13.105469 124.546875 12.839844 C 123.589844 12.582031 122.449219 12.445313 121.125 12.445313 C 119.8125 12.445313 118.605469 12.640625 117.503906 13.019531 C 116.398438 13.398438 115.394531 13.917969 114.492188 14.574219 C 113.582031 15.234375 112.785156 16.011719 112.097656 16.902344 C 111.40625 17.792969 110.820313 18.75 110.351563 19.769531 C 109.878906 20.796875 109.523438 21.863281 109.296875 22.964844 C 109.0625 24.0625 108.945313 25.148438 108.945313 26.210938 C 108.945313 27.414063 109.113281 28.460938 109.457031 29.351563 C 109.789063 30.261719 110.289063 31.019531 110.929688 31.613281 C 111.582031 32.21875 112.355469 32.679688 113.273438 32.984375 C 114.183594 33.296875 115.210938 33.453125 116.339844 33.453125 C 117.101563 33.453125 117.855469 33.371094 118.597656 33.21875 C 119.34375 33.0625 120.027344 32.835938 120.667969 32.523438 L 122.0625 25.566406 L 116.382813 25.566406 C 116.195313 25.566406 116.050781 25.492188 115.941406 25.347656 C 115.832031 25.195313 115.777344 24.960938 115.777344 24.636719 C 115.777344 24.480469 115.796875 24.28125 115.828125 24.035156 C 115.859375 23.785156 115.902344 23.523438 115.957031 23.25 C 116.011719 22.984375 116.070313 22.703125 116.152344 22.425781 C 116.230469 22.144531 116.332031 21.902344 116.441406 21.679688 C 116.5625 21.464844 116.691406 21.285156 116.820313 21.144531 C 116.96875 21.007813 117.117188 20.945313 117.296875 20.945313 L 127.453125 20.945313 C 127.96875 20.945313 128.335938 21.105469 128.550781 21.449219 C 128.769531 21.792969 128.816406 22.269531 128.6875 22.890625 L 126.269531 34.941406 C 126.210938 35.230469 126.128906 35.484375 126.035156 35.695313 C 125.945313 35.902344 125.824219 36.09375 125.667969 36.261719 C 125.492188 36.453125 125.097656 36.671875 124.480469 36.929688 C 123.855469 37.183594 123.105469 37.433594 122.210938 37.6875 C 121.324219 37.929688 120.324219 38.140625 119.226563 38.308594 C 118.125 38.480469 116.996094 38.570313 115.851563 38.570313 C 113.695313 38.570313 111.796875 38.320313 110.148438 37.824219 C 108.507813 37.324219 107.132813 36.582031 106.027344 35.605469 C 104.914063 34.613281 104.074219 33.414063 103.496094 31.988281 C 102.925781 30.5625 102.644531 28.917969 102.644531 27.050781 C 102.644531 25.378906 102.820313 23.738281 103.191406 22.121094 C 103.550781 20.511719 104.09375 18.976563 104.8125 17.53125 C 105.535156 16.078125 106.429688 14.738281 107.492188 13.503906 C 108.550781 12.269531 109.785156 11.207031 111.1875 10.3125 C 112.589844 9.40625 114.148438 8.707031 115.871094 8.203125 C 117.589844 7.699219 119.480469 7.449219 121.527344 7.449219 C 122.65625 7.449219 123.730469 7.53125 124.730469 7.710938 C 125.742188 7.890625 126.648438 8.105469 127.445313 8.363281 C 128.25 8.617188 128.917969 8.898438 129.457031 9.1875 C 130.003906 9.484375 130.359375 9.710938 130.539063 9.871094 C 130.71875 10.039063 130.835938 10.21875 130.902344 10.421875 C 130.96875 10.625 130.992188 10.871094 130.992188 11.167969 C 130.992188 11.320313 130.984375 11.523438 130.957031 11.773438 Z M 102.511719 9.328125 C 102.488281 9.5625 102.453125 9.820313 102.40625 10.109375 C 102.359375 10.394531 102.300781 10.695313 102.222656 11.003906 C 102.140625 11.3125 102.046875 11.601563 101.933594 11.851563 C 101.816406 12.105469 101.675781 12.324219 101.515625 12.492188 C 101.347656 12.667969 101.175781 12.75 100.988281 12.75 L 90.242188 12.75 L 88.753906 20.101563 L 97.867188 20.101563 C 98.089844 20.101563 98.242188 20.175781 98.335938 20.332031 C 98.4375 20.488281 98.476563 20.703125 98.476563 20.984375 C 98.476563 21.09375 98.46875 21.261719 98.441406 21.484375 C 98.417969 21.710938 98.378906 21.964844 98.335938 22.25 C 98.289063 22.539063 98.230469 22.828125 98.144531 23.121094 C 98.070313 23.417969 97.976563 23.6875 97.855469 23.9375 C 97.742188 24.183594 97.609375 24.386719 97.457031 24.542969 C 97.300781 24.695313 97.132813 24.773438 96.941406 24.773438 L 87.84375 24.773438 L 86.125 33.261719 L 97.007813 33.261719 C 97.199219 33.261719 97.335938 33.339844 97.429688 33.511719 C 97.523438 33.671875 97.566406 33.910156 97.566406 34.21875 C 97.566406 34.332031 97.558594 34.492188 97.546875 34.730469 C 97.53125 34.957031 97.496094 35.21875 97.441406 35.503906 C 97.386719 35.800781 97.316406 36.085938 97.238281 36.378906 C 97.167969 36.683594 97.074219 36.949219 96.953125 37.207031 C 96.832031 37.460938 96.703125 37.667969 96.546875 37.820313 C 96.390625 37.980469 96.210938 38.050781 96.007813 38.050781 L 80.890625 38.050781 C 80.640625 38.050781 80.417969 38.023438 80.214844 37.957031 C 80.015625 37.882813 79.847656 37.769531 79.714844 37.601563 C 79.585938 37.4375 79.5 37.238281 79.449219 36.992188 C 79.40625 36.761719 79.414063 36.464844 79.472656 36.125 L 84.730469 9.890625 C 84.867188 9.207031 85.148438 8.710938 85.5625 8.410156 C 85.980469 8.105469 86.449219 7.957031 86.960938 7.957031 L 101.941406 7.957031 C 102.339844 7.957031 102.546875 8.25 102.546875 8.839844 C 102.546875 8.933594 102.535156 9.101563 102.511719 9.328125 Z M 78.394531 18.050781 C 78.199219 19 77.882813 19.925781 77.449219 20.832031 C 77.015625 21.734375 76.449219 22.597656 75.761719 23.414063 C 75.066406 24.226563 74.226563 24.945313 73.21875 25.582031 C 72.226563 26.199219 71.066406 26.703125 69.746094 27.066406 C 68.429688 27.429688 66.878906 27.613281 65.097656 27.613281 L 61.957031 27.613281 L 60.023438 37.242188 C 59.996094 37.398438 59.910156 37.535156 59.796875 37.660156 C 59.664063 37.78125 59.480469 37.882813 59.207031 37.960938 C 58.945313 38.035156 58.617188 38.097656 58.210938 38.136719 C 57.804688 38.179688 57.3125 38.191406 56.722656 38.191406 C 56.152344 38.191406 55.671875 38.179688 55.292969 38.136719 C 54.910156 38.097656 54.613281 38.035156 54.394531 37.960938 C 54.179688 37.882813 54.03125 37.789063 53.953125 37.667969 C 53.878906 37.558594 53.859375 37.410156 53.910156 37.242188 L 59.328125 10.140625 C 59.464844 9.414063 59.769531 8.867188 60.238281 8.5 C 60.699219 8.140625 61.269531 7.957031 61.957031 7.957031 L 68.539063 7.957031 C 69.347656 7.957031 70.0625 7.984375 70.703125 8.035156 C 71.339844 8.097656 71.964844 8.183594 72.585938 8.304688 C 73.53125 8.496094 74.378906 8.78125 75.128906 9.167969 C 75.882813 9.554688 76.527344 10.039063 77.054688 10.621094 C 77.578125 11.203125 77.984375 11.882813 78.261719 12.667969 C 78.539063 13.453125 78.683594 14.335938 78.683594 15.332031 C 78.683594 16.203125 78.585938 17.101563 78.394531 18.050781 Z M 52.699219 10.402344 L 47.351563 37.242188 C 47.300781 37.394531 47.230469 37.535156 47.136719 37.660156 C 47.046875 37.777344 46.886719 37.882813 46.660156 37.957031 C 46.4375 38.042969 46.132813 38.097656 45.746094 38.132813 C 45.355469 38.179688 44.878906 38.195313 44.304688 38.195313 C 43.695313 38.195313 43.210938 38.179688 42.835938 38.132813 C 42.460938 38.097656 42.175781 38.042969 41.972656 37.957031 C 41.773438 37.882813 41.648438 37.777344 41.589844 37.660156 C 41.535156 37.535156 41.523438 37.394531 41.558594 37.242188 L 46.441406 12.75 L 46.398438 12.75 L 32.746094 37.214844 C 32.554688 37.605469 32.195313 37.863281 31.660156 37.992188 C 31.121094 38.132813 30.367188 38.195313 29.390625 38.195313 C 28.386719 38.195313 27.660156 38.105469 27.214844 37.929688 C 26.777344 37.75 26.542969 37.527344 26.53125 37.265625 L 22.996094 12.730469 L 22.945313 12.730469 L 18.039063 37.242188 C 18.007813 37.394531 17.941406 37.535156 17.84375 37.660156 C 17.742188 37.777344 17.582031 37.882813 17.359375 37.957031 C 17.132813 38.042969 16.828125 38.097656 16.449219 38.132813 C 16.066406 38.179688 15.582031 38.195313 14.988281 38.195313 C 14.402344 38.195313 13.925781 38.179688 13.550781 38.132813 C 13.179688 38.097656 12.894531 38.042969 12.691406 37.957031 C 12.488281 37.882813 12.351563 37.777344 12.296875 37.660156 C 12.234375 37.535156 12.222656 37.394531 12.273438 37.242188 L 17.625 10.417969 C 17.707031 10.035156 17.820313 9.6875 17.984375 9.375 C 18.140625 9.0625 18.347656 8.804688 18.585938 8.59375 C 18.824219 8.390625 19.105469 8.230469 19.414063 8.121094 C 19.726563 8.011719 20.050781 7.957031 20.417969 7.957031 L 24.226563 7.957031 C 24.90625 7.957031 25.496094 8.015625 25.96875 8.132813 C 26.453125 8.246094 26.851563 8.441406 27.15625 8.722656 C 27.464844 9.003906 27.703125 9.371094 27.867188 9.820313 C 28.03125 10.273438 28.148438 10.808594 28.210938 11.449219 L 31.117188 29.359375 L 31.226563 29.359375 L 41.558594 11.449219 C 41.863281 10.84375 42.175781 10.316406 42.488281 9.871094 C 42.800781 9.4375 43.144531 9.070313 43.523438 8.785156 C 43.898438 8.496094 44.328125 8.285156 44.789063 8.15625 C 45.257813 8.023438 45.800781 7.957031 46.441406 7.957031 L 50.765625 7.957031 C 51.15625 7.957031 51.488281 8.011719 51.773438 8.121094 C 52.046875 8.230469 52.265625 8.390625 52.429688 8.59375 C 52.59375 8.804688 52.695313 9.058594 52.734375 9.363281 C 52.773438 9.664063 52.761719 10.011719 52.699219 10.402344 Z M 139.136719 37.980469 C 138.476563 37.980469 138.03125 37.847656 137.796875 37.582031 C 137.550781 37.3125 137.433594 36.855469 137.433594 36.203125 C 137.433594 35.980469 137.457031 35.648438 137.503906 35.210938 C 137.558594 34.792969 137.636719 34.304688 137.738281 33.753906 C 137.832031 33.21875 137.960938 32.640625 138.117188 32.035156 C 138.261719 31.429688 138.433594 30.839844 138.625 30.242188 C 138.8125 29.644531 139.019531 29.085938 139.253906 28.550781 C 139.480469 28.023438 139.726563 27.582031 140.011719 27.226563 L 160.679688 0.238281 C 160.75 0.144531 160.90625 0.078125 161.003906 0 L 3.992188 0 C 3.992188 0 0 0 0 3.996094 L 0 42.332031 C 0 42.332031 0 46.328125 3.992188 46.328125 L 156.164063 46.328125 L 157.796875 37.980469 L 139.136719 37.980469 "/>
</g>
<path style=" stroke:none;fill-rule:nonzero;fill:rgb(13.699341%,12.199402%,12.5%);fill-opacity:1;" d="M 70.054688 12.960938 C 69.722656 12.851563 69.359375 12.777344 68.960938 12.730469 C 68.554688 12.695313 68.109375 12.679688 67.609375 12.679688 L 64.910156 12.679688 L 62.910156 22.890625 L 65.699219 22.890625 C 66.582031 22.890625 67.339844 22.785156 67.96875 22.574219 C 68.59375 22.367188 69.148438 22.09375 69.617188 21.75 C 70.09375 21.410156 70.496094 21.007813 70.832031 20.542969 C 71.167969 20.074219 71.433594 19.589844 71.644531 19.078125 C 71.851563 18.5625 72.003906 18.046875 72.097656 17.53125 C 72.191406 17.011719 72.238281 16.507813 72.238281 16.027344 C 72.238281 15.28125 72.0625 14.644531 71.703125 14.101563 C 71.34375 13.558594 70.796875 13.179688 70.054688 12.960938 "/>
<path style=" stroke:none;fill-rule:nonzero;fill:rgb(13.699341%,12.199402%,12.5%);fill-opacity:1;" d="M 146.675781 30.027344 L 159.429688 30.027344 L 163.820313 7.84375 L 163.746094 7.84375 L 146.675781 30.027344 "/>
<g clip-path="url(#clip2)" clip-rule="nonzero">
<path style=" stroke:none;fill-rule:nonzero;fill:rgb(13.699341%,12.199402%,12.5%);fill-opacity:1;" d="M 183.703125 0 L 174.773438 0 C 174.878906 0.164063 174.988281 0.332031 174.957031 0.535156 L 169.046875 30.027344 L 173.359375 30.027344 C 173.6875 30.027344 173.933594 30.179688 174.101563 30.484375 C 174.269531 30.78125 174.347656 31.214844 174.347656 31.773438 C 174.347656 31.996094 174.324219 32.304688 174.269531 32.699219 C 174.222656 33.09375 174.152344 33.511719 174.066406 33.964844 C 173.976563 34.417969 173.855469 34.886719 173.703125 35.371094 C 173.550781 35.847656 173.382813 36.28125 173.1875 36.671875 C 173.003906 37.066406 172.789063 37.378906 172.550781 37.617188 C 172.308594 37.855469 172.050781 37.980469 171.773438 37.980469 L 167.417969 37.980469 L 165.734375 46.328125 L 183.703125 46.328125 C 183.703125 46.328125 187.691406 46.328125 187.691406 42.332031 L 187.691406 3.996094 C 187.691406 3.996094 187.691406 0 183.703125 0 "/>
</g>
</g>
</svg>
